<?xml version="1.0" encoding="UTF-8" standalone="no"?>
<!DOCTYPE svg PUBLIC "-//W3C//DTD SVG 1.1//EN"
 "http://www.w3.org/Graphics/SVG/1.1/DTD/svg11.dtd">
<!-- Generated by graphviz version 2.40.1 (20161225.0304)
 -->
<!-- Title: oauth_access_grants Pages: 1 -->
<svg width="909pt" height="1192pt"
 viewBox="0.00 0.00 909.00 1192.00" xmlns="http://www.w3.org/2000/svg" xmlns:xlink="http://www.w3.org/1999/xlink">
<g id="graph0" class="graph" transform="scale(1 1) rotate(0) translate(4 1188)">
<title>oauth_access_grants</title>
<polygon fill="#ffffff" stroke="transparent" points="-4,4 -4,-1188 905,-1188 905,4 -4,4"/>
<!-- oauth_access_grants -->
<g id="node1" class="node">
<title>oauth_access_grants</title>
<polygon fill="#efefef" stroke="transparent" points="292,-1102.5 292,-1137.5 574,-1137.5 574,-1102.5 292,-1102.5"/>
<polygon fill="none" stroke="#000000" points="292,-1102.5 292,-1137.5 574,-1137.5 574,-1102.5 292,-1102.5"/>
<text text-anchor="start" x="298.8407" y="-1115.3" font-family="Arial Bold" font-size="18.00" fill="#000000">oauth_access_grants</text>
<text text-anchor="start" x="469.9055" y="-1115.3" font-family="Arial" font-size="14.00" fill="#000000"> </text>
<text text-anchor="start" x="473.7961" y="-1115.3" font-family="Arial" font-size="14.00" fill="#666666">[BASE TABLE]</text>
<polygon fill="none" stroke="#000000" points="292,-1072.5 292,-1102.5 574,-1102.5 574,-1072.5 292,-1072.5"/>
<text text-anchor="start" x="299" y="-1083.9" font-family="Arial" font-size="14.00" fill="#000000">id </text>
<text text-anchor="start" x="313.7798" y="-1083.9" font-family="Arial" font-size="14.00" fill="#666666">[bigint]</text>
<polygon fill="none" stroke="#000000" points="292,-1042.5 292,-1072.5 574,-1072.5 574,-1042.5 292,-1042.5"/>
<text text-anchor="start" x="299" y="-1053.9" font-family="Arial" font-size="14.00" fill="#000000">resource_owner_id </text>
<text text-anchor="start" x="421.9116" y="-1053.9" font-family="Arial" font-size="14.00" fill="#666666">[bigint]</text>
<polygon fill="none" stroke="#000000" points="292,-1012.5 292,-1042.5 574,-1042.5 574,-1012.5 292,-1012.5"/>
<text text-anchor="start" x="299" y="-1023.9" font-family="Arial" font-size="14.00" fill="#000000">application_id </text>
<text text-anchor="start" x="388.4684" y="-1023.9" font-family="Arial" font-size="14.00" fill="#666666">[bigint]</text>
<polygon fill="none" stroke="#000000" points="292,-982.5 292,-1012.5 574,-1012.5 574,-982.5 292,-982.5"/>
<text text-anchor="start" x="299" y="-993.9" font-family="Arial" font-size="14.00" fill="#000000">token </text>
<text text-anchor="start" x="337.129" y="-993.9" font-family="Arial" font-size="14.00" fill="#666666">[varchar(255)]</text>
<polygon fill="none" stroke="#000000" points="292,-952.5 292,-982.5 574,-982.5 574,-952.5 292,-952.5"/>
<text text-anchor="start" x="299" y="-963.9" font-family="Arial" font-size="14.00" fill="#000000">expires_in </text>
<text text-anchor="start" x="366.6774" y="-963.9" font-family="Arial" font-size="14.00" fill="#666666">[int]</text>
<polygon fill="none" stroke="#000000" points="292,-922.5 292,-952.5 574,-952.5 574,-922.5 292,-922.5"/>
<text text-anchor="start" x="299" y="-933.9" font-family="Arial" font-size="14.00" fill="#000000">redirect_uri </text>
<text text-anchor="start" x="372.8892" y="-933.9" font-family="Arial" font-size="14.00" fill="#666666">[text]</text>
<polygon fill="none" stroke="#000000" points="292,-892.5 292,-922.5 574,-922.5 574,-892.5 292,-892.5"/>
<text text-anchor="start" x="299" y="-903.9" font-family="Arial" font-size="14.00" fill="#000000">created_at </text>
<text text-anchor="start" x="369.028" y="-903.9" font-family="Arial" font-size="14.00" fill="#666666">[datetime]</text>
<polygon fill="none" stroke="#000000" points="292,-862.5 292,-892.5 574,-892.5 574,-862.5 292,-862.5"/>
<text text-anchor="start" x="299" y="-873.9" font-family="Arial" font-size="14.00" fill="#000000">revoked_at </text>
<text text-anchor="start" x="372.1374" y="-873.9" font-family="Arial" font-size="14.00" fill="#666666">[datetime]</text>
<polygon fill="none" stroke="#000000" points="292,-832.5 292,-862.5 574,-862.5 574,-832.5 292,-832.5"/>
<text text-anchor="start" x="299" y="-843.9" font-family="Arial" font-size="14.00" fill="#000000">scopes </text>
<text text-anchor="start" x="347.2384" y="-843.9" font-family="Arial" font-size="14.00" fill="#666666">[varchar(255)]</text>
<polygon fill="none" stroke="#000000" stroke-width="3" points="290.5,-831.5 290.5,-1139.5 575.5,-1139.5 575.5,-831.5 290.5,-831.5"/>
</g>
<!-- users -->
<g id="node2" class="node">
<title>users</title>
<polygon fill="#efefef" stroke="transparent" points="132,-672.5 132,-707.5 377,-707.5 377,-672.5 132,-672.5"/>
<polygon fill="none" stroke="#000000" points="132,-672.5 132,-707.5 377,-707.5 377,-672.5 132,-672.5"/>
<text text-anchor="start" x="183.8708" y="-685.3" font-family="Arial Bold" font-size="18.00" fill="#000000">users</text>
<text text-anchor="start" x="227.8754" y="-685.3" font-family="Arial" font-size="14.00" fill="#000000"> </text>
<text text-anchor="start" x="231.766" y="-685.3" font-family="Arial" font-size="14.00" fill="#666666">[BASE TABLE]</text>
<polygon fill="none" stroke="#000000" points="132,-642.5 132,-672.5 377,-672.5 377,-642.5 132,-642.5"/>
<text text-anchor="start" x="139" y="-653.9" font-family="Arial" font-size="14.00" fill="#000000">id </text>
<text text-anchor="start" x="153.7798" y="-653.9" font-family="Arial" font-size="14.00" fill="#666666">[bigint]</text>
<polygon fill="none" stroke="#000000" points="132,-612.5 132,-642.5 377,-642.5 377,-612.5 132,-612.5"/>
<text text-anchor="start" x="139" y="-623.9" font-family="Arial" font-size="14.00" fill="#000000">email </text>
<text text-anchor="start" x="176.3296" y="-623.9" font-family="Arial" font-size="14.00" fill="#666666">[varchar(255)]</text>
<polygon fill="none" stroke="#000000" points="132,-582.5 132,-612.5 377,-612.5 377,-582.5 132,-582.5"/>
<text text-anchor="start" x="139" y="-593.9" font-family="Arial" font-size="14.00" fill="#000000">encrypted_password </text>
<text text-anchor="start" x="272.035" y="-593.9" font-family="Arial" font-size="14.00" fill="#666666">[varchar(255)]</text>
<polygon fill="none" stroke="#000000" points="132,-552.5 132,-582.5 377,-582.5 377,-552.5 132,-552.5"/>
<text text-anchor="start" x="138.5863" y="-563.9" font-family="Arial" font-size="14.00" fill="#000000">reset_password_token </text>
<text text-anchor="start" x="283.2945" y="-563.9" font-family="Arial" font-size="14.00" fill="#666666">[varchar(255)]</text>
<polygon fill="none" stroke="#000000" points="132,-522.5 132,-552.5 377,-552.5 377,-522.5 132,-522.5"/>
<text text-anchor="start" x="139" y="-533.9" font-family="Arial" font-size="14.00" fill="#000000">reset_password_sent_at </text>
<text text-anchor="start" x="295.3814" y="-533.9" font-family="Arial" font-size="14.00" fill="#666666">[datetime]</text>
<polygon fill="none" stroke="#000000" points="132,-492.5 132,-522.5 377,-522.5 377,-492.5 132,-492.5"/>
<text text-anchor="start" x="139" y="-503.9" font-family="Arial" font-size="14.00" fill="#000000">remember_created_at </text>
<text text-anchor="start" x="280.5834" y="-503.9" font-family="Arial" font-size="14.00" fill="#666666">[datetime]</text>
<polygon fill="none" stroke="#000000" points="132,-462.5 132,-492.5 377,-492.5 377,-462.5 132,-462.5"/>
<text text-anchor="start" x="139" y="-473.9" font-family="Arial" font-size="14.00" fill="#000000">sign_in_count </text>
<text text-anchor="start" x="229.2552" y="-473.9" font-family="Arial" font-size="14.00" fill="#666666">[int]</text>
<polygon fill="none" stroke="#000000" points="132,-432.5 132,-462.5 377,-462.5 377,-432.5 132,-432.5"/>
<text text-anchor="start" x="139" y="-443.9" font-family="Arial" font-size="14.00" fill="#000000">current_sign_in_at </text>
<text text-anchor="start" x="258.0322" y="-443.9" font-family="Arial" font-size="14.00" fill="#666666">[datetime]</text>
<polygon fill="none" stroke="#000000" points="132,-402.5 132,-432.5 377,-432.5 377,-402.5 132,-402.5"/>
<text text-anchor="start" x="139" y="-413.9" font-family="Arial" font-size="14.00" fill="#000000">last_sign_in_at </text>
<text text-anchor="start" x="236.2524" y="-413.9" font-family="Arial" font-size="14.00" fill="#666666">[datetime]</text>
<polygon fill="none" stroke="#000000" points="132,-372.5 132,-402.5 377,-402.5 377,-372.5 132,-372.5"/>
<text text-anchor="start" x="139" y="-383.9" font-family="Arial" font-size="14.00" fill="#000000">current_sign_in_ip </text>
<text text-anchor="start" x="257.2482" y="-383.9" font-family="Arial" font-size="14.00" fill="#666666">[varchar(255)]</text>
<polygon fill="none" stroke="#000000" points="132,-342.5 132,-372.5 377,-372.5 377,-342.5 132,-342.5"/>
<text text-anchor="start" x="139" y="-353.9" font-family="Arial" font-size="14.00" fill="#000000">last_sign_in_ip </text>
<text text-anchor="start" x="235.4684" y="-353.9" font-family="Arial" font-size="14.00" fill="#666666">[varchar(255)]</text>
<polygon fill="none" stroke="#000000" points="132,-312.5 132,-342.5 377,-342.5 377,-312.5 132,-312.5"/>
<text text-anchor="start" x="139" y="-323.9" font-family="Arial" font-size="14.00" fill="#000000">confirmation_token </text>
<text text-anchor="start" x="261.1402" y="-323.9" font-family="Arial" font-size="14.00" fill="#666666">[varchar(255)]</text>
<polygon fill="none" stroke="#000000" points="132,-282.5 132,-312.5 377,-312.5 377,-282.5 132,-282.5"/>
<text text-anchor="start" x="139" y="-293.9" font-family="Arial" font-size="14.00" fill="#000000">confirmed_at </text>
<text text-anchor="start" x="223.7952" y="-293.9" font-family="Arial" font-size="14.00" fill="#666666">[datetime]</text>
<polygon fill="none" stroke="#000000" points="132,-252.5 132,-282.5 377,-282.5 377,-252.5 132,-252.5"/>
<text text-anchor="start" x="139" y="-263.9" font-family="Arial" font-size="14.00" fill="#000000">confirmation_sent_at </text>
<text text-anchor="start" x="272.8134" y="-263.9" font-family="Arial" font-size="14.00" fill="#666666">[datetime]</text>
<polygon fill="none" stroke="#000000" points="132,-222.5 132,-252.5 377,-252.5 377,-222.5 132,-222.5"/>
<text text-anchor="start" x="139" y="-233.9" font-family="Arial" font-size="14.00" fill="#000000">unconfirmed_email </text>
<text text-anchor="start" x="261.1262" y="-233.9" font-family="Arial" font-size="14.00" fill="#666666">[varchar(255)]</text>
<polygon fill="none" stroke="#000000" points="132,-192.5 132,-222.5 377,-222.5 377,-192.5 132,-192.5"/>
<text text-anchor="start" x="139" y="-203.9" font-family="Arial" font-size="14.00" fill="#000000">failed_attempts </text>
<text text-anchor="start" x="237.805" y="-203.9" font-family="Arial" font-size="14.00" fill="#666666">[int]</text>
<polygon fill="none" stroke="#000000" points="132,-162.5 132,-192.5 377,-192.5 377,-162.5 132,-162.5"/>
<text text-anchor="start" x="139" y="-173.9" font-family="Arial" font-size="14.00" fill="#000000">unlock_token </text>
<text text-anchor="start" x="225.366" y="-173.9" font-family="Arial" font-size="14.00" fill="#666666">[varchar(255)]</text>
<polygon fill="none" stroke="#000000" points="132,-132.5 132,-162.5 377,-162.5 377,-132.5 132,-132.5"/>
<text text-anchor="start" x="139" y="-143.9" font-family="Arial" font-size="14.00" fill="#000000">locked_at </text>
<text text-anchor="start" x="202.8008" y="-143.9" font-family="Arial" font-size="14.00" fill="#666666">[datetime]</text>
<polygon fill="none" stroke="#000000" points="132,-102.5 132,-132.5 377,-132.5 377,-102.5 132,-102.5"/>
<text text-anchor="start" x="139" y="-113.9" font-family="Arial" font-size="14.00" fill="#000000">role </text>
<text text-anchor="start" x="166.223" y="-113.9" font-family="Arial" font-size="14.00" fill="#666666">[int]</text>
<polygon fill="none" stroke="#000000" points="132,-72.5 132,-102.5 377,-102.5 377,-72.5 132,-72.5"/>
<text text-anchor="start" x="139" y="-83.9" font-family="Arial" font-size="14.00" fill="#000000">created_at </text>
<text text-anchor="start" x="209.028" y="-83.9" font-family="Arial" font-size="14.00" fill="#666666">[datetime(6)]</text>
<polygon fill="none" stroke="#000000" points="132,-42.5 132,-72.5 377,-72.5 377,-42.5 132,-42.5"/>
<text text-anchor="start" x="139" y="-53.9" font-family="Arial" font-size="14.00" fill="#000000">updated_at </text>
<text text-anchor="start" x="212.9326" y="-53.9" font-family="Arial" font-size="14.00" fill="#666666">[datetime(6)]</text>
</g>
<!-- oauth_access_grants&#45;&gt;users -->
<g id="edge1" class="edge">
<title>oauth_access_grants:resource_owner_id&#45;&gt;users:id</title>
<path fill="none" stroke="#000000" d="M281.8777,-1057.0676C174.9425,-1047.5831 227.5499,-884.2887 292,-787 314.6577,-752.7978 354.3423,-785.2022 377,-751 399.9499,-716.3566 418.5556,-657.5 377,-657.5"/>
<polygon fill="#000000" stroke="#000000" points="282.0091,-1057.0731 291.8079,-1061.9959 287.0046,-1057.2866 292,-1057.5 292,-1057.5 292,-1057.5 287.0046,-1057.2866 292.1921,-1053.0041 282.0091,-1057.0731 282.0091,-1057.0731"/>
<text text-anchor="start" x="6.8295" y="-1067.5" font-family="Arial" font-size="10.00" fill="#000000">FOREIGN KEY (resource_owner_id) REFERENCES users (id)</text>
</g>
<!-- oauth_applications -->
<g id="node3" class="node">
<title>oauth_applications</title>
<polygon fill="#efefef" stroke="transparent" points="481,-507.5 481,-542.5 742,-542.5 742,-507.5 481,-507.5"/>
<polygon fill="none" stroke="#000000" points="481,-507.5 481,-542.5 742,-542.5 742,-507.5 481,-507.5"/>
<text text-anchor="start" x="487.8455" y="-520.3" font-family="Arial Bold" font-size="18.00" fill="#000000">oauth_applications</text>
<text text-anchor="start" x="637.9007" y="-520.3" font-family="Arial" font-size="14.00" fill="#000000"> </text>
<text text-anchor="start" x="641.7913" y="-520.3" font-family="Arial" font-size="14.00" fill="#666666">[BASE TABLE]</text>
<polygon fill="none" stroke="#000000" points="481,-477.5 481,-507.5 742,-507.5 742,-477.5 481,-477.5"/>
<text text-anchor="start" x="488" y="-488.9" font-family="Arial" font-size="14.00" fill="#000000">id </text>
<text text-anchor="start" x="502.7798" y="-488.9" font-family="Arial" font-size="14.00" fill="#666666">[bigint]</text>
<polygon fill="none" stroke="#000000" points="481,-447.5 481,-477.5 742,-477.5 742,-447.5 481,-447.5"/>
<text text-anchor="start" x="488" y="-458.9" font-family="Arial" font-size="14.00" fill="#000000">name </text>
<text text-anchor="start" x="526.899" y="-458.9" font-family="Arial" font-size="14.00" fill="#666666">[varchar(255)]</text>
<polygon fill="none" stroke="#000000" points="481,-417.5 481,-447.5 742,-447.5 742,-417.5 481,-417.5"/>
<text text-anchor="start" x="488" y="-428.9" font-family="Arial" font-size="14.00" fill="#000000">uid </text>
<text text-anchor="start" x="510.5624" y="-428.9" font-family="Arial" font-size="14.00" fill="#666666">[varchar(255)]</text>
<polygon fill="none" stroke="#000000" points="481,-387.5 481,-417.5 742,-417.5 742,-387.5 481,-387.5"/>
<text text-anchor="start" x="488" y="-398.9" font-family="Arial" font-size="14.00" fill="#000000">secret </text>
<text text-anchor="start" x="530.007" y="-398.9" font-family="Arial" font-size="14.00" fill="#666666">[varchar(255)]</text>
<polygon fill="none" stroke="#000000" points="481,-357.5 481,-387.5 742,-387.5 742,-357.5 481,-357.5"/>
<text text-anchor="start" x="488" y="-368.9" font-family="Arial" font-size="14.00" fill="#000000">redirect_uri </text>
<text text-anchor="start" x="561.8892" y="-368.9" font-family="Arial" font-size="14.00" fill="#666666">[text]</text>
<polygon fill="none" stroke="#000000" points="481,-327.5 481,-357.5 742,-357.5 742,-327.5 481,-327.5"/>
<text text-anchor="start" x="488" y="-338.9" font-family="Arial" font-size="14.00" fill="#000000">scopes </text>
<text text-anchor="start" x="536.2384" y="-338.9" font-family="Arial" font-size="14.00" fill="#666666">[varchar(255)]</text>
<polygon fill="none" stroke="#000000" points="481,-297.5 481,-327.5 742,-327.5 742,-297.5 481,-297.5"/>
<text text-anchor="start" x="488" y="-308.9" font-family="Arial" font-size="14.00" fill="#000000">confidential </text>
<text text-anchor="start" x="562.6872" y="-308.9" font-family="Arial" font-size="14.00" fill="#666666">[tinyint(1)]</text>
<polygon fill="none" stroke="#000000" points="481,-267.5 481,-297.5 742,-297.5 742,-267.5 481,-267.5"/>
<text text-anchor="start" x="488" y="-278.9" font-family="Arial" font-size="14.00" fill="#000000">superapp </text>
<text text-anchor="start" x="550.2468" y="-278.9" font-family="Arial" font-size="14.00" fill="#666666">[tinyint(1)]</text>
<polygon fill="none" stroke="#000000" points="481,-237.5 481,-267.5 742,-267.5 742,-237.5 481,-237.5"/>
<text text-anchor="start" x="488" y="-248.9" font-family="Arial" font-size="14.00" fill="#000000">created_at </text>
<text text-anchor="start" x="558.028" y="-248.9" font-family="Arial" font-size="14.00" fill="#666666">[datetime(6)]</text>
<polygon fill="none" stroke="#000000" points="481,-207.5 481,-237.5 742,-237.5 742,-207.5 481,-207.5"/>
<text text-anchor="start" x="488" y="-218.9" font-family="Arial" font-size="14.00" fill="#000000">updated_at </text>
<text text-anchor="start" x="561.9326" y="-218.9" font-family="Arial" font-size="14.00" fill="#666666">[datetime(6)]</text>
</g>
<!-- oauth_access_grants&#45;&gt;oauth_applications -->
<g id="edge2" class="edge">
<title>oauth_access_grants:application_id&#45;&gt;oauth_applications:id</title>
<path fill="none" stroke="#000000" d="M584.0112,-1027.0709C752.2201,-1012.0306 485.5225,-606.5442 481,-586 472.0662,-545.4161 439.4444,-492.5 481,-492.5"/>
<polygon fill="#000000" stroke="#000000" points="583.9908,-1027.0716 573.8072,-1023.0041 578.9954,-1027.2858 574,-1027.5 574,-1027.5 574,-1027.5 578.9954,-1027.2858 574.1928,-1031.9959 583.9908,-1027.0716 583.9908,-1027.0716"/>
<text text-anchor="start" x="581.315" y="-1037.5" font-family="Arial" font-size="10.00" fill="#000000">FOREIGN KEY (application_id) REFERENCES oauth_applications (id)</text>
</g>
</g>
</svg>
