<?xml version="1.0" encoding="UTF-8" standalone="no"?>
<!DOCTYPE svg PUBLIC "-//W3C//DTD SVG 1.1//EN"
 "http://www.w3.org/Graphics/SVG/1.1/DTD/svg11.dtd">
<!-- Generated by graphviz version 2.40.1 (20161225.0304)
 -->
<!-- Title: oauth_access_tokens Pages: 1 -->
<svg width="912pt" height="1222pt"
 viewBox="0.00 0.00 912.00 1222.00" xmlns="http://www.w3.org/2000/svg" xmlns:xlink="http://www.w3.org/1999/xlink">
<g id="graph0" class="graph" transform="scale(1 1) rotate(0) translate(4 1218)">
<title>oauth_access_tokens</title>
<polygon fill="#ffffff" stroke="transparent" points="-4,4 -4,-1218 908,-1218 908,4 -4,4"/>
<!-- oauth_access_tokens -->
<g id="node1" class="node">
<title>oauth_access_tokens</title>
<polygon fill="#efefef" stroke="transparent" points="292,-1132.5 292,-1167.5 577,-1167.5 577,-1132.5 292,-1132.5"/>
<polygon fill="none" stroke="#000000" points="292,-1132.5 292,-1167.5 577,-1167.5 577,-1132.5 292,-1132.5"/>
<text text-anchor="start" x="298.8368" y="-1145.3" font-family="Arial Bold" font-size="18.00" fill="#000000">oauth_access_tokens</text>
<text text-anchor="start" x="472.9094" y="-1145.3" font-family="Arial" font-size="14.00" fill="#000000"> </text>
<text text-anchor="start" x="476.8" y="-1145.3" font-family="Arial" font-size="14.00" fill="#666666">[BASE TABLE]</text>
<polygon fill="none" stroke="#000000" points="292,-1102.5 292,-1132.5 577,-1132.5 577,-1102.5 292,-1102.5"/>
<text text-anchor="start" x="299" y="-1113.9" font-family="Arial" font-size="14.00" fill="#000000">id </text>
<text text-anchor="start" x="313.7798" y="-1113.9" font-family="Arial" font-size="14.00" fill="#666666">[bigint]</text>
<polygon fill="none" stroke="#000000" points="292,-1072.5 292,-1102.5 577,-1102.5 577,-1072.5 292,-1072.5"/>
<text text-anchor="start" x="299" y="-1083.9" font-family="Arial" font-size="14.00" fill="#000000">resource_owner_id </text>
<text text-anchor="start" x="421.9116" y="-1083.9" font-family="Arial" font-size="14.00" fill="#666666">[bigint]</text>
<polygon fill="none" stroke="#000000" points="292,-1042.5 292,-1072.5 577,-1072.5 577,-1042.5 292,-1042.5"/>
<text text-anchor="start" x="299" y="-1053.9" font-family="Arial" font-size="14.00" fill="#000000">application_id </text>
<text text-anchor="start" x="388.4684" y="-1053.9" font-family="Arial" font-size="14.00" fill="#666666">[bigint]</text>
<polygon fill="none" stroke="#000000" points="292,-1012.5 292,-1042.5 577,-1042.5 577,-1012.5 292,-1012.5"/>
<text text-anchor="start" x="299" y="-1023.9" font-family="Arial" font-size="14.00" fill="#000000">token </text>
<text text-anchor="start" x="337.129" y="-1023.9" font-family="Arial" font-size="14.00" fill="#666666">[varchar(255)]</text>
<polygon fill="none" stroke="#000000" points="292,-982.5 292,-1012.5 577,-1012.5 577,-982.5 292,-982.5"/>
<text text-anchor="start" x="299" y="-993.9" font-family="Arial" font-size="14.00" fill="#000000">refresh_token </text>
<text text-anchor="start" x="388.4712" y="-993.9" font-family="Arial" font-size="14.00" fill="#666666">[varchar(255)]</text>
<polygon fill="none" stroke="#000000" points="292,-952.5 292,-982.5 577,-982.5 577,-952.5 292,-952.5"/>
<text text-anchor="start" x="299" y="-963.9" font-family="Arial" font-size="14.00" fill="#000000">expires_in </text>
<text text-anchor="start" x="366.6774" y="-963.9" font-family="Arial" font-size="14.00" fill="#666666">[int]</text>
<polygon fill="none" stroke="#000000" points="292,-922.5 292,-952.5 577,-952.5 577,-922.5 292,-922.5"/>
<text text-anchor="start" x="299" y="-933.9" font-family="Arial" font-size="14.00" fill="#000000">revoked_at </text>
<text text-anchor="start" x="372.1374" y="-933.9" font-family="Arial" font-size="14.00" fill="#666666">[datetime]</text>
<polygon fill="none" stroke="#000000" points="292,-892.5 292,-922.5 577,-922.5 577,-892.5 292,-892.5"/>
<text text-anchor="start" x="299" y="-903.9" font-family="Arial" font-size="14.00" fill="#000000">created_at </text>
<text text-anchor="start" x="369.028" y="-903.9" font-family="Arial" font-size="14.00" fill="#666666">[datetime]</text>
<polygon fill="none" stroke="#000000" points="292,-862.5 292,-892.5 577,-892.5 577,-862.5 292,-862.5"/>
<text text-anchor="start" x="299" y="-873.9" font-family="Arial" font-size="14.00" fill="#000000">scopes </text>
<text text-anchor="start" x="347.2384" y="-873.9" font-family="Arial" font-size="14.00" fill="#666666">[varchar(255)]</text>
<polygon fill="none" stroke="#000000" points="292,-832.5 292,-862.5 577,-862.5 577,-832.5 292,-832.5"/>
<text text-anchor="start" x="299" y="-843.9" font-family="Arial" font-size="14.00" fill="#000000">previous_refresh_token </text>
<text text-anchor="start" x="449.1514" y="-843.9" font-family="Arial" font-size="14.00" fill="#666666">[varchar(255)]</text>
<polygon fill="none" stroke="#000000" stroke-width="3" points="290,-831.5 290,-1169.5 578,-1169.5 578,-831.5 290,-831.5"/>
</g>
<!-- users -->
<g id="node2" class="node">
<title>users</title>
<polygon fill="#efefef" stroke="transparent" points="134,-672.5 134,-707.5 379,-707.5 379,-672.5 134,-672.5"/>
<polygon fill="none" stroke="#000000" points="134,-672.5 134,-707.5 379,-707.5 379,-672.5 134,-672.5"/>
<text text-anchor="start" x="185.8708" y="-685.3" font-family="Arial Bold" font-size="18.00" fill="#000000">users</text>
<text text-anchor="start" x="229.8754" y="-685.3" font-family="Arial" font-size="14.00" fill="#000000"> </text>
<text text-anchor="start" x="233.766" y="-685.3" font-family="Arial" font-size="14.00" fill="#666666">[BASE TABLE]</text>
<polygon fill="none" stroke="#000000" points="134,-642.5 134,-672.5 379,-672.5 379,-642.5 134,-642.5"/>
<text text-anchor="start" x="141" y="-653.9" font-family="Arial" font-size="14.00" fill="#000000">id </text>
<text text-anchor="start" x="155.7798" y="-653.9" font-family="Arial" font-size="14.00" fill="#666666">[bigint]</text>
<polygon fill="none" stroke="#000000" points="134,-612.5 134,-642.5 379,-642.5 379,-612.5 134,-612.5"/>
<text text-anchor="start" x="141" y="-623.9" font-family="Arial" font-size="14.00" fill="#000000">email </text>
<text text-anchor="start" x="178.3296" y="-623.9" font-family="Arial" font-size="14.00" fill="#666666">[varchar(255)]</text>
<polygon fill="none" stroke="#000000" points="134,-582.5 134,-612.5 379,-612.5 379,-582.5 134,-582.5"/>
<text text-anchor="start" x="141" y="-593.9" font-family="Arial" font-size="14.00" fill="#000000">encrypted_password </text>
<text text-anchor="start" x="274.035" y="-593.9" font-family="Arial" font-size="14.00" fill="#666666">[varchar(255)]</text>
<polygon fill="none" stroke="#000000" points="134,-552.5 134,-582.5 379,-582.5 379,-552.5 134,-552.5"/>
<text text-anchor="start" x="140.5863" y="-563.9" font-family="Arial" font-size="14.00" fill="#000000">reset_password_token </text>
<text text-anchor="start" x="285.2945" y="-563.9" font-family="Arial" font-size="14.00" fill="#666666">[varchar(255)]</text>
<polygon fill="none" stroke="#000000" points="134,-522.5 134,-552.5 379,-552.5 379,-522.5 134,-522.5"/>
<text text-anchor="start" x="141" y="-533.9" font-family="Arial" font-size="14.00" fill="#000000">reset_password_sent_at </text>
<text text-anchor="start" x="297.3814" y="-533.9" font-family="Arial" font-size="14.00" fill="#666666">[datetime]</text>
<polygon fill="none" stroke="#000000" points="134,-492.5 134,-522.5 379,-522.5 379,-492.5 134,-492.5"/>
<text text-anchor="start" x="141" y="-503.9" font-family="Arial" font-size="14.00" fill="#000000">remember_created_at </text>
<text text-anchor="start" x="282.5834" y="-503.9" font-family="Arial" font-size="14.00" fill="#666666">[datetime]</text>
<polygon fill="none" stroke="#000000" points="134,-462.5 134,-492.5 379,-492.5 379,-462.5 134,-462.5"/>
<text text-anchor="start" x="141" y="-473.9" font-family="Arial" font-size="14.00" fill="#000000">sign_in_count </text>
<text text-anchor="start" x="231.2552" y="-473.9" font-family="Arial" font-size="14.00" fill="#666666">[int]</text>
<polygon fill="none" stroke="#000000" points="134,-432.5 134,-462.5 379,-462.5 379,-432.5 134,-432.5"/>
<text text-anchor="start" x="141" y="-443.9" font-family="Arial" font-size="14.00" fill="#000000">current_sign_in_at </text>
<text text-anchor="start" x="260.0322" y="-443.9" font-family="Arial" font-size="14.00" fill="#666666">[datetime]</text>
<polygon fill="none" stroke="#000000" points="134,-402.5 134,-432.5 379,-432.5 379,-402.5 134,-402.5"/>
<text text-anchor="start" x="141" y="-413.9" font-family="Arial" font-size="14.00" fill="#000000">last_sign_in_at </text>
<text text-anchor="start" x="238.2524" y="-413.9" font-family="Arial" font-size="14.00" fill="#666666">[datetime]</text>
<polygon fill="none" stroke="#000000" points="134,-372.5 134,-402.5 379,-402.5 379,-372.5 134,-372.5"/>
<text text-anchor="start" x="141" y="-383.9" font-family="Arial" font-size="14.00" fill="#000000">current_sign_in_ip </text>
<text text-anchor="start" x="259.2482" y="-383.9" font-family="Arial" font-size="14.00" fill="#666666">[varchar(255)]</text>
<polygon fill="none" stroke="#000000" points="134,-342.5 134,-372.5 379,-372.5 379,-342.5 134,-342.5"/>
<text text-anchor="start" x="141" y="-353.9" font-family="Arial" font-size="14.00" fill="#000000">last_sign_in_ip </text>
<text text-anchor="start" x="237.4684" y="-353.9" font-family="Arial" font-size="14.00" fill="#666666">[varchar(255)]</text>
<polygon fill="none" stroke="#000000" points="134,-312.5 134,-342.5 379,-342.5 379,-312.5 134,-312.5"/>
<text text-anchor="start" x="141" y="-323.9" font-family="Arial" font-size="14.00" fill="#000000">confirmation_token </text>
<text text-anchor="start" x="263.1402" y="-323.9" font-family="Arial" font-size="14.00" fill="#666666">[varchar(255)]</text>
<polygon fill="none" stroke="#000000" points="134,-282.5 134,-312.5 379,-312.5 379,-282.5 134,-282.5"/>
<text text-anchor="start" x="141" y="-293.9" font-family="Arial" font-size="14.00" fill="#000000">confirmed_at </text>
<text text-anchor="start" x="225.7952" y="-293.9" font-family="Arial" font-size="14.00" fill="#666666">[datetime]</text>
<polygon fill="none" stroke="#000000" points="134,-252.5 134,-282.5 379,-282.5 379,-252.5 134,-252.5"/>
<text text-anchor="start" x="141" y="-263.9" font-family="Arial" font-size="14.00" fill="#000000">confirmation_sent_at </text>
<text text-anchor="start" x="274.8134" y="-263.9" font-family="Arial" font-size="14.00" fill="#666666">[datetime]</text>
<polygon fill="none" stroke="#000000" points="134,-222.5 134,-252.5 379,-252.5 379,-222.5 134,-222.5"/>
<text text-anchor="start" x="141" y="-233.9" font-family="Arial" font-size="14.00" fill="#000000">unconfirmed_email </text>
<text text-anchor="start" x="263.1262" y="-233.9" font-family="Arial" font-size="14.00" fill="#666666">[varchar(255)]</text>
<polygon fill="none" stroke="#000000" points="134,-192.5 134,-222.5 379,-222.5 379,-192.5 134,-192.5"/>
<text text-anchor="start" x="141" y="-203.9" font-family="Arial" font-size="14.00" fill="#000000">failed_attempts </text>
<text text-anchor="start" x="239.805" y="-203.9" font-family="Arial" font-size="14.00" fill="#666666">[int]</text>
<polygon fill="none" stroke="#000000" points="134,-162.5 134,-192.5 379,-192.5 379,-162.5 134,-162.5"/>
<text text-anchor="start" x="141" y="-173.9" font-family="Arial" font-size="14.00" fill="#000000">unlock_token </text>
<text text-anchor="start" x="227.366" y="-173.9" font-family="Arial" font-size="14.00" fill="#666666">[varchar(255)]</text>
<polygon fill="none" stroke="#000000" points="134,-132.5 134,-162.5 379,-162.5 379,-132.5 134,-132.5"/>
<text text-anchor="start" x="141" y="-143.9" font-family="Arial" font-size="14.00" fill="#000000">locked_at </text>
<text text-anchor="start" x="204.8008" y="-143.9" font-family="Arial" font-size="14.00" fill="#666666">[datetime]</text>
<polygon fill="none" stroke="#000000" points="134,-102.5 134,-132.5 379,-132.5 379,-102.5 134,-102.5"/>
<text text-anchor="start" x="141" y="-113.9" font-family="Arial" font-size="14.00" fill="#000000">role </text>
<text text-anchor="start" x="168.223" y="-113.9" font-family="Arial" font-size="14.00" fill="#666666">[int]</text>
<polygon fill="none" stroke="#000000" points="134,-72.5 134,-102.5 379,-102.5 379,-72.5 134,-72.5"/>
<text text-anchor="start" x="141" y="-83.9" font-family="Arial" font-size="14.00" fill="#000000">created_at </text>
<text text-anchor="start" x="211.028" y="-83.9" font-family="Arial" font-size="14.00" fill="#666666">[datetime(6)]</text>
<polygon fill="none" stroke="#000000" points="134,-42.5 134,-72.5 379,-72.5 379,-42.5 134,-42.5"/>
<text text-anchor="start" x="141" y="-53.9" font-family="Arial" font-size="14.00" fill="#000000">updated_at </text>
<text text-anchor="start" x="214.9326" y="-53.9" font-family="Arial" font-size="14.00" fill="#666666">[datetime(6)]</text>
</g>
<!-- oauth_access_tokens&#45;&gt;users -->
<g id="edge1" class="edge">
<title>oauth_access_tokens:resource_owner_id&#45;&gt;users:id</title>
<path fill="none" stroke="#000000" d="M281.8346,-1087.1097C161.5838,-1077.5632 219.7375,-895.1064 292,-787 315.2548,-752.2103 355.7452,-785.7897 379,-751 402.0932,-716.452 420.5556,-657.5 379,-657.5"/>
<polygon fill="#000000" stroke="#000000" points="282.0074,-1087.1163 291.8273,-1091.9967 287.0037,-1087.3081 292,-1087.5 292,-1087.5 292,-1087.5 287.0037,-1087.3081 292.1727,-1083.0033 282.0074,-1087.1163 282.0074,-1087.1163"/>
<text text-anchor="start" x="6.8295" y="-1097.5" font-family="Arial" font-size="10.00" fill="#000000">FOREIGN KEY (resource_owner_id) REFERENCES users (id)</text>
</g>
<!-- oauth_applications -->
<g id="node3" class="node">
<title>oauth_applications</title>
<polygon fill="#efefef" stroke="transparent" points="483,-507.5 483,-542.5 744,-542.5 744,-507.5 483,-507.5"/>
<polygon fill="none" stroke="#000000" points="483,-507.5 483,-542.5 744,-542.5 744,-507.5 483,-507.5"/>
<text text-anchor="start" x="489.8455" y="-520.3" font-family="Arial Bold" font-size="18.00" fill="#000000">oauth_applications</text>
<text text-anchor="start" x="639.9007" y="-520.3" font-family="Arial" font-size="14.00" fill="#000000"> </text>
<text text-anchor="start" x="643.7913" y="-520.3" font-family="Arial" font-size="14.00" fill="#666666">[BASE TABLE]</text>
<polygon fill="none" stroke="#000000" points="483,-477.5 483,-507.5 744,-507.5 744,-477.5 483,-477.5"/>
<text text-anchor="start" x="490" y="-488.9" font-family="Arial" font-size="14.00" fill="#000000">id </text>
<text text-anchor="start" x="504.7798" y="-488.9" font-family="Arial" font-size="14.00" fill="#666666">[bigint]</text>
<polygon fill="none" stroke="#000000" points="483,-447.5 483,-477.5 744,-477.5 744,-447.5 483,-447.5"/>
<text text-anchor="start" x="490" y="-458.9" font-family="Arial" font-size="14.00" fill="#000000">name </text>
<text text-anchor="start" x="528.899" y="-458.9" font-family="Arial" font-size="14.00" fill="#666666">[varchar(255)]</text>
<polygon fill="none" stroke="#000000" points="483,-417.5 483,-447.5 744,-447.5 744,-417.5 483,-417.5"/>
<text text-anchor="start" x="490" y="-428.9" font-family="Arial" font-size="14.00" fill="#000000">uid </text>
<text text-anchor="start" x="512.5624" y="-428.9" font-family="Arial" font-size="14.00" fill="#666666">[varchar(255)]</text>
<polygon fill="none" stroke="#000000" points="483,-387.5 483,-417.5 744,-417.5 744,-387.5 483,-387.5"/>
<text text-anchor="start" x="490" y="-398.9" font-family="Arial" font-size="14.00" fill="#000000">secret </text>
<text text-anchor="start" x="532.007" y="-398.9" font-family="Arial" font-size="14.00" fill="#666666">[varchar(255)]</text>
<polygon fill="none" stroke="#000000" points="483,-357.5 483,-387.5 744,-387.5 744,-357.5 483,-357.5"/>
<text text-anchor="start" x="490" y="-368.9" font-family="Arial" font-size="14.00" fill="#000000">redirect_uri </text>
<text text-anchor="start" x="563.8892" y="-368.9" font-family="Arial" font-size="14.00" fill="#666666">[text]</text>
<polygon fill="none" stroke="#000000" points="483,-327.5 483,-357.5 744,-357.5 744,-327.5 483,-327.5"/>
<text text-anchor="start" x="490" y="-338.9" font-family="Arial" font-size="14.00" fill="#000000">scopes </text>
<text text-anchor="start" x="538.2384" y="-338.9" font-family="Arial" font-size="14.00" fill="#666666">[varchar(255)]</text>
<polygon fill="none" stroke="#000000" points="483,-297.5 483,-327.5 744,-327.5 744,-297.5 483,-297.5"/>
<text text-anchor="start" x="490" y="-308.9" font-family="Arial" font-size="14.00" fill="#000000">confidential </text>
<text text-anchor="start" x="564.6872" y="-308.9" font-family="Arial" font-size="14.00" fill="#666666">[tinyint(1)]</text>
<polygon fill="none" stroke="#000000" points="483,-267.5 483,-297.5 744,-297.5 744,-267.5 483,-267.5"/>
<text text-anchor="start" x="490" y="-278.9" font-family="Arial" font-size="14.00" fill="#000000">superapp </text>
<text text-anchor="start" x="552.2468" y="-278.9" font-family="Arial" font-size="14.00" fill="#666666">[tinyint(1)]</text>
<polygon fill="none" stroke="#000000" points="483,-237.5 483,-267.5 744,-267.5 744,-237.5 483,-237.5"/>
<text text-anchor="start" x="490" y="-248.9" font-family="Arial" font-size="14.00" fill="#000000">created_at </text>
<text text-anchor="start" x="560.028" y="-248.9" font-family="Arial" font-size="14.00" fill="#666666">[datetime(6)]</text>
<polygon fill="none" stroke="#000000" points="483,-207.5 483,-237.5 744,-237.5 744,-207.5 483,-207.5"/>
<text text-anchor="start" x="490" y="-218.9" font-family="Arial" font-size="14.00" fill="#000000">updated_at </text>
<text text-anchor="start" x="563.9326" y="-218.9" font-family="Arial" font-size="14.00" fill="#666666">[datetime(6)]</text>
</g>
<!-- oauth_access_tokens&#45;&gt;oauth_applications -->
<g id="edge2" class="edge">
<title>oauth_access_tokens:application_id&#45;&gt;oauth_applications:id</title>
<path fill="none" stroke="#000000" d="M587.0216,-1057.1104C691.7648,-1048.5575 602.3218,-900.9198 577,-787 555.6013,-690.7299 504.3987,-682.2701 483,-586 473.9832,-545.4345 441.4444,-492.5 483,-492.5"/>
<polygon fill="#000000" stroke="#000000" points="586.9925,-1057.1115 576.8252,-1053.0034 581.9962,-1057.3057 577,-1057.5 577,-1057.5 577,-1057.5 581.9962,-1057.3057 577.1748,-1061.9966 586.9925,-1057.1115 586.9925,-1057.1115"/>
<text text-anchor="start" x="584.315" y="-1067.5" font-family="Arial" font-size="10.00" fill="#000000">FOREIGN KEY (application_id) REFERENCES oauth_applications (id)</text>
</g>
</g>
</svg>
