<?xml version="1.0" encoding="UTF-8" standalone="no"?>
<!DOCTYPE svg PUBLIC "-//W3C//DTD SVG 1.1//EN"
 "http://www.w3.org/Graphics/SVG/1.1/DTD/svg11.dtd">
<!-- Generated by graphviz version 2.40.1 (20161225.0304)
 -->
<!-- Title: oauth_applications Pages: 1 -->
<svg width="766pt" height="892pt"
 viewBox="0.00 0.00 765.50 892.00" xmlns="http://www.w3.org/2000/svg" xmlns:xlink="http://www.w3.org/1999/xlink">
<g id="graph0" class="graph" transform="scale(1 1) rotate(0) translate(4 888)">
<title>oauth_applications</title>
<polygon fill="#ffffff" stroke="transparent" points="-4,4 -4,-888 761.5,-888 761.5,4 -4,4"/>
<!-- oauth_applications -->
<g id="node1" class="node">
<title>oauth_applications</title>
<polygon fill="#efefef" stroke="transparent" points="247,-345.5 247,-380.5 508,-380.5 508,-345.5 247,-345.5"/>
<polygon fill="none" stroke="#000000" points="247,-345.5 247,-380.5 508,-380.5 508,-345.5 247,-345.5"/>
<text text-anchor="start" x="253.8455" y="-358.3" font-family="Arial Bold" font-size="18.00" fill="#000000">oauth_applications</text>
<text text-anchor="start" x="403.9007" y="-358.3" font-family="Arial" font-size="14.00" fill="#000000"> </text>
<text text-anchor="start" x="407.7913" y="-358.3" font-family="Arial" font-size="14.00" fill="#666666">[BASE TABLE]</text>
<polygon fill="none" stroke="#000000" points="247,-315.5 247,-345.5 508,-345.5 508,-315.5 247,-315.5"/>
<text text-anchor="start" x="254" y="-326.9" font-family="Arial" font-size="14.00" fill="#000000">id </text>
<text text-anchor="start" x="268.7798" y="-326.9" font-family="Arial" font-size="14.00" fill="#666666">[bigint]</text>
<polygon fill="none" stroke="#000000" points="247,-285.5 247,-315.5 508,-315.5 508,-285.5 247,-285.5"/>
<text text-anchor="start" x="254" y="-296.9" font-family="Arial" font-size="14.00" fill="#000000">name </text>
<text text-anchor="start" x="292.899" y="-296.9" font-family="Arial" font-size="14.00" fill="#666666">[varchar(255)]</text>
<polygon fill="none" stroke="#000000" points="247,-255.5 247,-285.5 508,-285.5 508,-255.5 247,-255.5"/>
<text text-anchor="start" x="254" y="-266.9" font-family="Arial" font-size="14.00" fill="#000000">uid </text>
<text text-anchor="start" x="276.5624" y="-266.9" font-family="Arial" font-size="14.00" fill="#666666">[varchar(255)]</text>
<polygon fill="none" stroke="#000000" points="247,-225.5 247,-255.5 508,-255.5 508,-225.5 247,-225.5"/>
<text text-anchor="start" x="254" y="-236.9" font-family="Arial" font-size="14.00" fill="#000000">secret </text>
<text text-anchor="start" x="296.007" y="-236.9" font-family="Arial" font-size="14.00" fill="#666666">[varchar(255)]</text>
<polygon fill="none" stroke="#000000" points="247,-195.5 247,-225.5 508,-225.5 508,-195.5 247,-195.5"/>
<text text-anchor="start" x="254" y="-206.9" font-family="Arial" font-size="14.00" fill="#000000">redirect_uri </text>
<text text-anchor="start" x="327.8892" y="-206.9" font-family="Arial" font-size="14.00" fill="#666666">[text]</text>
<polygon fill="none" stroke="#000000" points="247,-165.5 247,-195.5 508,-195.5 508,-165.5 247,-165.5"/>
<text text-anchor="start" x="254" y="-176.9" font-family="Arial" font-size="14.00" fill="#000000">scopes </text>
<text text-anchor="start" x="302.2384" y="-176.9" font-family="Arial" font-size="14.00" fill="#666666">[varchar(255)]</text>
<polygon fill="none" stroke="#000000" points="247,-135.5 247,-165.5 508,-165.5 508,-135.5 247,-135.5"/>
<text text-anchor="start" x="254" y="-146.9" font-family="Arial" font-size="14.00" fill="#000000">confidential </text>
<text text-anchor="start" x="328.6872" y="-146.9" font-family="Arial" font-size="14.00" fill="#666666">[tinyint(1)]</text>
<polygon fill="none" stroke="#000000" points="247,-105.5 247,-135.5 508,-135.5 508,-105.5 247,-105.5"/>
<text text-anchor="start" x="254" y="-116.9" font-family="Arial" font-size="14.00" fill="#000000">superapp </text>
<text text-anchor="start" x="316.2468" y="-116.9" font-family="Arial" font-size="14.00" fill="#666666">[tinyint(1)]</text>
<polygon fill="none" stroke="#000000" points="247,-75.5 247,-105.5 508,-105.5 508,-75.5 247,-75.5"/>
<text text-anchor="start" x="254" y="-86.9" font-family="Arial" font-size="14.00" fill="#000000">created_at </text>
<text text-anchor="start" x="324.028" y="-86.9" font-family="Arial" font-size="14.00" fill="#666666">[datetime(6)]</text>
<polygon fill="none" stroke="#000000" points="247,-45.5 247,-75.5 508,-75.5 508,-45.5 247,-45.5"/>
<text text-anchor="start" x="254" y="-56.9" font-family="Arial" font-size="14.00" fill="#000000">updated_at </text>
<text text-anchor="start" x="327.9326" y="-56.9" font-family="Arial" font-size="14.00" fill="#666666">[datetime(6)]</text>
<polygon fill="none" stroke="#000000" stroke-width="3" points="245,-44.5 245,-382.5 509,-382.5 509,-44.5 245,-44.5"/>
</g>
<!-- oauth_access_grants -->
<g id="node2" class="node">
<title>oauth_access_grants</title>
<polygon fill="#efefef" stroke="transparent" points="43,-790.5 43,-825.5 325,-825.5 325,-790.5 43,-790.5"/>
<polygon fill="none" stroke="#000000" points="43,-790.5 43,-825.5 325,-825.5 325,-790.5 43,-790.5"/>
<text text-anchor="start" x="49.8407" y="-803.3" font-family="Arial Bold" font-size="18.00" fill="#000000">oauth_access_grants</text>
<text text-anchor="start" x="220.9055" y="-803.3" font-family="Arial" font-size="14.00" fill="#000000"> </text>
<text text-anchor="start" x="224.7961" y="-803.3" font-family="Arial" font-size="14.00" fill="#666666">[BASE TABLE]</text>
<polygon fill="none" stroke="#000000" points="43,-760.5 43,-790.5 325,-790.5 325,-760.5 43,-760.5"/>
<text text-anchor="start" x="50" y="-771.9" font-family="Arial" font-size="14.00" fill="#000000">id </text>
<text text-anchor="start" x="64.7798" y="-771.9" font-family="Arial" font-size="14.00" fill="#666666">[bigint]</text>
<polygon fill="none" stroke="#000000" points="43,-730.5 43,-760.5 325,-760.5 325,-730.5 43,-730.5"/>
<text text-anchor="start" x="50" y="-741.9" font-family="Arial" font-size="14.00" fill="#000000">resource_owner_id </text>
<text text-anchor="start" x="172.9116" y="-741.9" font-family="Arial" font-size="14.00" fill="#666666">[bigint]</text>
<polygon fill="none" stroke="#000000" points="43,-700.5 43,-730.5 325,-730.5 325,-700.5 43,-700.5"/>
<text text-anchor="start" x="50" y="-711.9" font-family="Arial" font-size="14.00" fill="#000000">application_id </text>
<text text-anchor="start" x="139.4684" y="-711.9" font-family="Arial" font-size="14.00" fill="#666666">[bigint]</text>
<polygon fill="none" stroke="#000000" points="43,-670.5 43,-700.5 325,-700.5 325,-670.5 43,-670.5"/>
<text text-anchor="start" x="50" y="-681.9" font-family="Arial" font-size="14.00" fill="#000000">token </text>
<text text-anchor="start" x="88.129" y="-681.9" font-family="Arial" font-size="14.00" fill="#666666">[varchar(255)]</text>
<polygon fill="none" stroke="#000000" points="43,-640.5 43,-670.5 325,-670.5 325,-640.5 43,-640.5"/>
<text text-anchor="start" x="50" y="-651.9" font-family="Arial" font-size="14.00" fill="#000000">expires_in </text>
<text text-anchor="start" x="117.6774" y="-651.9" font-family="Arial" font-size="14.00" fill="#666666">[int]</text>
<polygon fill="none" stroke="#000000" points="43,-610.5 43,-640.5 325,-640.5 325,-610.5 43,-610.5"/>
<text text-anchor="start" x="50" y="-621.9" font-family="Arial" font-size="14.00" fill="#000000">redirect_uri </text>
<text text-anchor="start" x="123.8892" y="-621.9" font-family="Arial" font-size="14.00" fill="#666666">[text]</text>
<polygon fill="none" stroke="#000000" points="43,-580.5 43,-610.5 325,-610.5 325,-580.5 43,-580.5"/>
<text text-anchor="start" x="50" y="-591.9" font-family="Arial" font-size="14.00" fill="#000000">created_at </text>
<text text-anchor="start" x="120.028" y="-591.9" font-family="Arial" font-size="14.00" fill="#666666">[datetime]</text>
<polygon fill="none" stroke="#000000" points="43,-550.5 43,-580.5 325,-580.5 325,-550.5 43,-550.5"/>
<text text-anchor="start" x="50" y="-561.9" font-family="Arial" font-size="14.00" fill="#000000">revoked_at </text>
<text text-anchor="start" x="123.1374" y="-561.9" font-family="Arial" font-size="14.00" fill="#666666">[datetime]</text>
<polygon fill="none" stroke="#000000" points="43,-520.5 43,-550.5 325,-550.5 325,-520.5 43,-520.5"/>
<text text-anchor="start" x="50" y="-531.9" font-family="Arial" font-size="14.00" fill="#000000">scopes </text>
<text text-anchor="start" x="98.2384" y="-531.9" font-family="Arial" font-size="14.00" fill="#666666">[varchar(255)]</text>
</g>
<!-- oauth_access_grants&#45;&gt;oauth_applications -->
<g id="edge1" class="edge">
<title>oauth_access_grants:application_id&#45;&gt;oauth_applications:id</title>
<path fill="none" stroke="#000000" d="M334.9685,-712.7827C373.8998,-689.3447 348.3455,-521.1572 325,-478 305.2932,-441.5693 266.7068,-463.4307 247,-427 226.5939,-389.2767 204.1111,-330.5 247,-330.5"/>
<polygon fill="#000000" stroke="#000000" points="334.648,-712.87 323.8165,-711.1584 329.824,-714.185 325,-715.5 325,-715.5 325,-715.5 329.824,-714.185 326.1835,-719.8416 334.648,-712.87 334.648,-712.87"/>
<text text-anchor="start" x="332.315" y="-725.5" font-family="Arial" font-size="10.00" fill="#000000">FOREIGN KEY (application_id) REFERENCES oauth_applications (id)</text>
</g>
<!-- oauth_access_tokens -->
<g id="node3" class="node">
<title>oauth_access_tokens</title>
<polygon fill="#efefef" stroke="transparent" points="430,-805.5 430,-840.5 715,-840.5 715,-805.5 430,-805.5"/>
<polygon fill="none" stroke="#000000" points="430,-805.5 430,-840.5 715,-840.5 715,-805.5 430,-805.5"/>
<text text-anchor="start" x="436.8368" y="-818.3" font-family="Arial Bold" font-size="18.00" fill="#000000">oauth_access_tokens</text>
<text text-anchor="start" x="610.9094" y="-818.3" font-family="Arial" font-size="14.00" fill="#000000"> </text>
<text text-anchor="start" x="614.8" y="-818.3" font-family="Arial" font-size="14.00" fill="#666666">[BASE TABLE]</text>
<polygon fill="none" stroke="#000000" points="430,-775.5 430,-805.5 715,-805.5 715,-775.5 430,-775.5"/>
<text text-anchor="start" x="437" y="-786.9" font-family="Arial" font-size="14.00" fill="#000000">id </text>
<text text-anchor="start" x="451.7798" y="-786.9" font-family="Arial" font-size="14.00" fill="#666666">[bigint]</text>
<polygon fill="none" stroke="#000000" points="430,-745.5 430,-775.5 715,-775.5 715,-745.5 430,-745.5"/>
<text text-anchor="start" x="437" y="-756.9" font-family="Arial" font-size="14.00" fill="#000000">resource_owner_id </text>
<text text-anchor="start" x="559.9116" y="-756.9" font-family="Arial" font-size="14.00" fill="#666666">[bigint]</text>
<polygon fill="none" stroke="#000000" points="430,-715.5 430,-745.5 715,-745.5 715,-715.5 430,-715.5"/>
<text text-anchor="start" x="437" y="-726.9" font-family="Arial" font-size="14.00" fill="#000000">application_id </text>
<text text-anchor="start" x="526.4684" y="-726.9" font-family="Arial" font-size="14.00" fill="#666666">[bigint]</text>
<polygon fill="none" stroke="#000000" points="430,-685.5 430,-715.5 715,-715.5 715,-685.5 430,-685.5"/>
<text text-anchor="start" x="437" y="-696.9" font-family="Arial" font-size="14.00" fill="#000000">token </text>
<text text-anchor="start" x="475.129" y="-696.9" font-family="Arial" font-size="14.00" fill="#666666">[varchar(255)]</text>
<polygon fill="none" stroke="#000000" points="430,-655.5 430,-685.5 715,-685.5 715,-655.5 430,-655.5"/>
<text text-anchor="start" x="437" y="-666.9" font-family="Arial" font-size="14.00" fill="#000000">refresh_token </text>
<text text-anchor="start" x="526.4712" y="-666.9" font-family="Arial" font-size="14.00" fill="#666666">[varchar(255)]</text>
<polygon fill="none" stroke="#000000" points="430,-625.5 430,-655.5 715,-655.5 715,-625.5 430,-625.5"/>
<text text-anchor="start" x="437" y="-636.9" font-family="Arial" font-size="14.00" fill="#000000">expires_in </text>
<text text-anchor="start" x="504.6774" y="-636.9" font-family="Arial" font-size="14.00" fill="#666666">[int]</text>
<polygon fill="none" stroke="#000000" points="430,-595.5 430,-625.5 715,-625.5 715,-595.5 430,-595.5"/>
<text text-anchor="start" x="437" y="-606.9" font-family="Arial" font-size="14.00" fill="#000000">revoked_at </text>
<text text-anchor="start" x="510.1374" y="-606.9" font-family="Arial" font-size="14.00" fill="#666666">[datetime]</text>
<polygon fill="none" stroke="#000000" points="430,-565.5 430,-595.5 715,-595.5 715,-565.5 430,-565.5"/>
<text text-anchor="start" x="437" y="-576.9" font-family="Arial" font-size="14.00" fill="#000000">created_at </text>
<text text-anchor="start" x="507.028" y="-576.9" font-family="Arial" font-size="14.00" fill="#666666">[datetime]</text>
<polygon fill="none" stroke="#000000" points="430,-535.5 430,-565.5 715,-565.5 715,-535.5 430,-535.5"/>
<text text-anchor="start" x="437" y="-546.9" font-family="Arial" font-size="14.00" fill="#000000">scopes </text>
<text text-anchor="start" x="485.2384" y="-546.9" font-family="Arial" font-size="14.00" fill="#666666">[varchar(255)]</text>
<polygon fill="none" stroke="#000000" points="430,-505.5 430,-535.5 715,-535.5 715,-505.5 430,-505.5"/>
<text text-anchor="start" x="437" y="-516.9" font-family="Arial" font-size="14.00" fill="#000000">previous_refresh_token </text>
<text text-anchor="start" x="587.1514" y="-516.9" font-family="Arial" font-size="14.00" fill="#666666">[varchar(255)]</text>
</g>
<!-- oauth_access_tokens&#45;&gt;oauth_applications -->
<g id="edge2" class="edge">
<title>oauth_access_tokens:application_id&#45;&gt;oauth_applications:id</title>
<path fill="none" stroke="#000000" d="M420.1394,-728.1942C373.8913,-704.7844 399.902,-510.0405 430,-463 450.5777,-430.8389 487.4223,-459.1611 508,-427 531.1151,-390.8732 550.8889,-330.5 508,-330.5"/>
<polygon fill="#000000" stroke="#000000" points="420.2627,-728.2229 428.9753,-734.8818 425.1313,-729.3615 430,-730.5 430,-730.5 430,-730.5 425.1313,-729.3615 431.0247,-726.1182 420.2627,-728.2229 420.2627,-728.2229"/>
<text text-anchor="start" x="437.315" y="-740.5" font-family="Arial" font-size="10.00" fill="#000000">FOREIGN KEY (application_id) REFERENCES oauth_applications (id)</text>
</g>
</g>
</svg>
