<?xml version="1.0" encoding="UTF-8" standalone="no"?>
<!DOCTYPE svg PUBLIC "-//W3C//DTD SVG 1.1//EN"
 "http://www.w3.org/Graphics/SVG/1.1/DTD/svg11.dtd">
<!-- Generated by graphviz version 2.40.1 (20161225.0304)
 -->
<!-- Title: suburi db Pages: 1 -->
<svg width="1522pt" height="1216pt"
 viewBox="0.00 0.00 1522.00 1216.00" xmlns="http://www.w3.org/2000/svg" xmlns:xlink="http://www.w3.org/1999/xlink">
<g id="graph0" class="graph" transform="scale(1 1) rotate(0) translate(4 1212)">
<title>suburi db</title>
<polygon fill="#ffffff" stroke="transparent" points="-4,4 -4,-1212 1518,-1212 1518,4 -4,4"/>
<!-- ar_internal_metadata -->
<g id="node1" class="node">
<title>ar_internal_metadata</title>
<polygon fill="#efefef" stroke="transparent" points="43.5,-1039.5 43.5,-1074.5 324.5,-1074.5 324.5,-1039.5 43.5,-1039.5"/>
<polygon fill="none" stroke="#000000" points="43.5,-1039.5 43.5,-1074.5 324.5,-1074.5 324.5,-1039.5 43.5,-1039.5"/>
<text text-anchor="start" x="50.3501" y="-1052.3" font-family="Arial Bold" font-size="18.00" fill="#000000">ar_internal_metadata</text>
<text text-anchor="start" x="220.3961" y="-1052.3" font-family="Arial" font-size="14.00" fill="#000000"> </text>
<text text-anchor="start" x="224.2867" y="-1052.3" font-family="Arial" font-size="14.00" fill="#666666">[BASE TABLE]</text>
<polygon fill="none" stroke="#000000" points="43.5,-1009.5 43.5,-1039.5 324.5,-1039.5 324.5,-1009.5 43.5,-1009.5"/>
<text text-anchor="start" x="50.5" y="-1020.9" font-family="Arial" font-size="14.00" fill="#000000">key </text>
<text text-anchor="start" x="76.1732" y="-1020.9" font-family="Arial" font-size="14.00" fill="#666666">[varchar(255)]</text>
<polygon fill="none" stroke="#000000" points="43.5,-979.5 43.5,-1009.5 324.5,-1009.5 324.5,-979.5 43.5,-979.5"/>
<text text-anchor="start" x="50.5" y="-990.9" font-family="Arial" font-size="14.00" fill="#000000">value </text>
<text text-anchor="start" x="87.845" y="-990.9" font-family="Arial" font-size="14.00" fill="#666666">[varchar(255)]</text>
<polygon fill="none" stroke="#000000" points="43.5,-949.5 43.5,-979.5 324.5,-979.5 324.5,-949.5 43.5,-949.5"/>
<text text-anchor="start" x="50.5" y="-960.9" font-family="Arial" font-size="14.00" fill="#000000">created_at </text>
<text text-anchor="start" x="120.528" y="-960.9" font-family="Arial" font-size="14.00" fill="#666666">[datetime(6)]</text>
<polygon fill="none" stroke="#000000" points="43.5,-919.5 43.5,-949.5 324.5,-949.5 324.5,-919.5 43.5,-919.5"/>
<text text-anchor="start" x="50.5" y="-930.9" font-family="Arial" font-size="14.00" fill="#000000">updated_at </text>
<text text-anchor="start" x="124.4326" y="-930.9" font-family="Arial" font-size="14.00" fill="#666666">[datetime(6)]</text>
</g>
<!-- oauth_access_grants -->
<g id="node2" class="node">
<title>oauth_access_grants</title>
<polygon fill="#efefef" stroke="transparent" points="428.5,-1114.5 428.5,-1149.5 710.5,-1149.5 710.5,-1114.5 428.5,-1114.5"/>
<polygon fill="none" stroke="#000000" points="428.5,-1114.5 428.5,-1149.5 710.5,-1149.5 710.5,-1114.5 428.5,-1114.5"/>
<text text-anchor="start" x="435.3407" y="-1127.3" font-family="Arial Bold" font-size="18.00" fill="#000000">oauth_access_grants</text>
<text text-anchor="start" x="606.4055" y="-1127.3" font-family="Arial" font-size="14.00" fill="#000000"> </text>
<text text-anchor="start" x="610.2961" y="-1127.3" font-family="Arial" font-size="14.00" fill="#666666">[BASE TABLE]</text>
<polygon fill="none" stroke="#000000" points="428.5,-1084.5 428.5,-1114.5 710.5,-1114.5 710.5,-1084.5 428.5,-1084.5"/>
<text text-anchor="start" x="435.5" y="-1095.9" font-family="Arial" font-size="14.00" fill="#000000">id </text>
<text text-anchor="start" x="450.2798" y="-1095.9" font-family="Arial" font-size="14.00" fill="#666666">[bigint]</text>
<polygon fill="none" stroke="#000000" points="428.5,-1054.5 428.5,-1084.5 710.5,-1084.5 710.5,-1054.5 428.5,-1054.5"/>
<text text-anchor="start" x="435.5" y="-1065.9" font-family="Arial" font-size="14.00" fill="#000000">resource_owner_id </text>
<text text-anchor="start" x="558.4116" y="-1065.9" font-family="Arial" font-size="14.00" fill="#666666">[bigint]</text>
<polygon fill="none" stroke="#000000" points="428.5,-1024.5 428.5,-1054.5 710.5,-1054.5 710.5,-1024.5 428.5,-1024.5"/>
<text text-anchor="start" x="435.5" y="-1035.9" font-family="Arial" font-size="14.00" fill="#000000">application_id </text>
<text text-anchor="start" x="524.9684" y="-1035.9" font-family="Arial" font-size="14.00" fill="#666666">[bigint]</text>
<polygon fill="none" stroke="#000000" points="428.5,-994.5 428.5,-1024.5 710.5,-1024.5 710.5,-994.5 428.5,-994.5"/>
<text text-anchor="start" x="435.5" y="-1005.9" font-family="Arial" font-size="14.00" fill="#000000">token </text>
<text text-anchor="start" x="473.629" y="-1005.9" font-family="Arial" font-size="14.00" fill="#666666">[varchar(255)]</text>
<polygon fill="none" stroke="#000000" points="428.5,-964.5 428.5,-994.5 710.5,-994.5 710.5,-964.5 428.5,-964.5"/>
<text text-anchor="start" x="435.5" y="-975.9" font-family="Arial" font-size="14.00" fill="#000000">expires_in </text>
<text text-anchor="start" x="503.1774" y="-975.9" font-family="Arial" font-size="14.00" fill="#666666">[int]</text>
<polygon fill="none" stroke="#000000" points="428.5,-934.5 428.5,-964.5 710.5,-964.5 710.5,-934.5 428.5,-934.5"/>
<text text-anchor="start" x="435.5" y="-945.9" font-family="Arial" font-size="14.00" fill="#000000">redirect_uri </text>
<text text-anchor="start" x="509.3892" y="-945.9" font-family="Arial" font-size="14.00" fill="#666666">[text]</text>
<polygon fill="none" stroke="#000000" points="428.5,-904.5 428.5,-934.5 710.5,-934.5 710.5,-904.5 428.5,-904.5"/>
<text text-anchor="start" x="435.5" y="-915.9" font-family="Arial" font-size="14.00" fill="#000000">created_at </text>
<text text-anchor="start" x="505.528" y="-915.9" font-family="Arial" font-size="14.00" fill="#666666">[datetime]</text>
<polygon fill="none" stroke="#000000" points="428.5,-874.5 428.5,-904.5 710.5,-904.5 710.5,-874.5 428.5,-874.5"/>
<text text-anchor="start" x="435.5" y="-885.9" font-family="Arial" font-size="14.00" fill="#000000">revoked_at </text>
<text text-anchor="start" x="508.6374" y="-885.9" font-family="Arial" font-size="14.00" fill="#666666">[datetime]</text>
<polygon fill="none" stroke="#000000" points="428.5,-844.5 428.5,-874.5 710.5,-874.5 710.5,-844.5 428.5,-844.5"/>
<text text-anchor="start" x="435.5" y="-855.9" font-family="Arial" font-size="14.00" fill="#000000">scopes </text>
<text text-anchor="start" x="483.7384" y="-855.9" font-family="Arial" font-size="14.00" fill="#666666">[varchar(255)]</text>
</g>
<!-- oauth_applications -->
<g id="node4" class="node">
<title>oauth_applications</title>
<polygon fill="#efefef" stroke="transparent" points="454.5,-507.5 454.5,-542.5 715.5,-542.5 715.5,-507.5 454.5,-507.5"/>
<polygon fill="none" stroke="#000000" points="454.5,-507.5 454.5,-542.5 715.5,-542.5 715.5,-507.5 454.5,-507.5"/>
<text text-anchor="start" x="461.3455" y="-520.3" font-family="Arial Bold" font-size="18.00" fill="#000000">oauth_applications</text>
<text text-anchor="start" x="611.4007" y="-520.3" font-family="Arial" font-size="14.00" fill="#000000"> </text>
<text text-anchor="start" x="615.2913" y="-520.3" font-family="Arial" font-size="14.00" fill="#666666">[BASE TABLE]</text>
<polygon fill="none" stroke="#000000" points="454.5,-477.5 454.5,-507.5 715.5,-507.5 715.5,-477.5 454.5,-477.5"/>
<text text-anchor="start" x="461.5" y="-488.9" font-family="Arial" font-size="14.00" fill="#000000">id </text>
<text text-anchor="start" x="476.2798" y="-488.9" font-family="Arial" font-size="14.00" fill="#666666">[bigint]</text>
<polygon fill="none" stroke="#000000" points="454.5,-447.5 454.5,-477.5 715.5,-477.5 715.5,-447.5 454.5,-447.5"/>
<text text-anchor="start" x="461.5" y="-458.9" font-family="Arial" font-size="14.00" fill="#000000">name </text>
<text text-anchor="start" x="500.399" y="-458.9" font-family="Arial" font-size="14.00" fill="#666666">[varchar(255)]</text>
<polygon fill="none" stroke="#000000" points="454.5,-417.5 454.5,-447.5 715.5,-447.5 715.5,-417.5 454.5,-417.5"/>
<text text-anchor="start" x="461.5" y="-428.9" font-family="Arial" font-size="14.00" fill="#000000">uid </text>
<text text-anchor="start" x="484.0624" y="-428.9" font-family="Arial" font-size="14.00" fill="#666666">[varchar(255)]</text>
<polygon fill="none" stroke="#000000" points="454.5,-387.5 454.5,-417.5 715.5,-417.5 715.5,-387.5 454.5,-387.5"/>
<text text-anchor="start" x="461.5" y="-398.9" font-family="Arial" font-size="14.00" fill="#000000">secret </text>
<text text-anchor="start" x="503.507" y="-398.9" font-family="Arial" font-size="14.00" fill="#666666">[varchar(255)]</text>
<polygon fill="none" stroke="#000000" points="454.5,-357.5 454.5,-387.5 715.5,-387.5 715.5,-357.5 454.5,-357.5"/>
<text text-anchor="start" x="461.5" y="-368.9" font-family="Arial" font-size="14.00" fill="#000000">redirect_uri </text>
<text text-anchor="start" x="535.3892" y="-368.9" font-family="Arial" font-size="14.00" fill="#666666">[text]</text>
<polygon fill="none" stroke="#000000" points="454.5,-327.5 454.5,-357.5 715.5,-357.5 715.5,-327.5 454.5,-327.5"/>
<text text-anchor="start" x="461.5" y="-338.9" font-family="Arial" font-size="14.00" fill="#000000">scopes </text>
<text text-anchor="start" x="509.7384" y="-338.9" font-family="Arial" font-size="14.00" fill="#666666">[varchar(255)]</text>
<polygon fill="none" stroke="#000000" points="454.5,-297.5 454.5,-327.5 715.5,-327.5 715.5,-297.5 454.5,-297.5"/>
<text text-anchor="start" x="461.5" y="-308.9" font-family="Arial" font-size="14.00" fill="#000000">confidential </text>
<text text-anchor="start" x="536.1872" y="-308.9" font-family="Arial" font-size="14.00" fill="#666666">[tinyint(1)]</text>
<polygon fill="none" stroke="#000000" points="454.5,-267.5 454.5,-297.5 715.5,-297.5 715.5,-267.5 454.5,-267.5"/>
<text text-anchor="start" x="461.5" y="-278.9" font-family="Arial" font-size="14.00" fill="#000000">superapp </text>
<text text-anchor="start" x="523.7468" y="-278.9" font-family="Arial" font-size="14.00" fill="#666666">[tinyint(1)]</text>
<polygon fill="none" stroke="#000000" points="454.5,-237.5 454.5,-267.5 715.5,-267.5 715.5,-237.5 454.5,-237.5"/>
<text text-anchor="start" x="461.5" y="-248.9" font-family="Arial" font-size="14.00" fill="#000000">created_at </text>
<text text-anchor="start" x="531.528" y="-248.9" font-family="Arial" font-size="14.00" fill="#666666">[datetime(6)]</text>
<polygon fill="none" stroke="#000000" points="454.5,-207.5 454.5,-237.5 715.5,-237.5 715.5,-207.5 454.5,-207.5"/>
<text text-anchor="start" x="461.5" y="-218.9" font-family="Arial" font-size="14.00" fill="#000000">updated_at </text>
<text text-anchor="start" x="535.4326" y="-218.9" font-family="Arial" font-size="14.00" fill="#666666">[datetime(6)]</text>
</g>
<!-- oauth_access_grants&#45;&gt;oauth_applications -->
<g id="edge2" class="edge">
<title>oauth_access_grants:application_id&#45;&gt;oauth_applications:id</title>
<path fill="none" stroke="#000000" d="M720.429,-1036.8026C759.0244,-1013.5332 731.176,-846.4978 710.5,-802 647.7698,-666.9952 517.2302,-721.0048 454.5,-586 436.9892,-548.314 412.9444,-492.5 454.5,-492.5"/>
<polygon fill="#000000" stroke="#000000" points="720.1502,-1036.8782 709.3202,-1035.1574 715.3251,-1038.1891 710.5,-1039.5 710.5,-1039.5 710.5,-1039.5 715.3251,-1038.1891 711.6798,-1043.8426 720.1502,-1036.8782 720.1502,-1036.8782"/>
<text text-anchor="start" x="717.815" y="-1049.5" font-family="Arial" font-size="10.00" fill="#000000">FOREIGN KEY (application_id) REFERENCES oauth_applications (id)</text>
</g>
<!-- users -->
<g id="node6" class="node">
<title>users</title>
<polygon fill="#efefef" stroke="transparent" points="827.5,-672.5 827.5,-707.5 1072.5,-707.5 1072.5,-672.5 827.5,-672.5"/>
<polygon fill="none" stroke="#000000" points="827.5,-672.5 827.5,-707.5 1072.5,-707.5 1072.5,-672.5 827.5,-672.5"/>
<text text-anchor="start" x="879.3708" y="-685.3" font-family="Arial Bold" font-size="18.00" fill="#000000">users</text>
<text text-anchor="start" x="923.3754" y="-685.3" font-family="Arial" font-size="14.00" fill="#000000"> </text>
<text text-anchor="start" x="927.266" y="-685.3" font-family="Arial" font-size="14.00" fill="#666666">[BASE TABLE]</text>
<polygon fill="none" stroke="#000000" points="827.5,-642.5 827.5,-672.5 1072.5,-672.5 1072.5,-642.5 827.5,-642.5"/>
<text text-anchor="start" x="834.5" y="-653.9" font-family="Arial" font-size="14.00" fill="#000000">id </text>
<text text-anchor="start" x="849.2798" y="-653.9" font-family="Arial" font-size="14.00" fill="#666666">[bigint]</text>
<polygon fill="none" stroke="#000000" points="827.5,-612.5 827.5,-642.5 1072.5,-642.5 1072.5,-612.5 827.5,-612.5"/>
<text text-anchor="start" x="834.5" y="-623.9" font-family="Arial" font-size="14.00" fill="#000000">email </text>
<text text-anchor="start" x="871.8296" y="-623.9" font-family="Arial" font-size="14.00" fill="#666666">[varchar(255)]</text>
<polygon fill="none" stroke="#000000" points="827.5,-582.5 827.5,-612.5 1072.5,-612.5 1072.5,-582.5 827.5,-582.5"/>
<text text-anchor="start" x="834.5" y="-593.9" font-family="Arial" font-size="14.00" fill="#000000">encrypted_password </text>
<text text-anchor="start" x="967.535" y="-593.9" font-family="Arial" font-size="14.00" fill="#666666">[varchar(255)]</text>
<polygon fill="none" stroke="#000000" points="827.5,-552.5 827.5,-582.5 1072.5,-582.5 1072.5,-552.5 827.5,-552.5"/>
<text text-anchor="start" x="834.0863" y="-563.9" font-family="Arial" font-size="14.00" fill="#000000">reset_password_token </text>
<text text-anchor="start" x="978.7945" y="-563.9" font-family="Arial" font-size="14.00" fill="#666666">[varchar(255)]</text>
<polygon fill="none" stroke="#000000" points="827.5,-522.5 827.5,-552.5 1072.5,-552.5 1072.5,-522.5 827.5,-522.5"/>
<text text-anchor="start" x="834.5" y="-533.9" font-family="Arial" font-size="14.00" fill="#000000">reset_password_sent_at </text>
<text text-anchor="start" x="990.8814" y="-533.9" font-family="Arial" font-size="14.00" fill="#666666">[datetime]</text>
<polygon fill="none" stroke="#000000" points="827.5,-492.5 827.5,-522.5 1072.5,-522.5 1072.5,-492.5 827.5,-492.5"/>
<text text-anchor="start" x="834.5" y="-503.9" font-family="Arial" font-size="14.00" fill="#000000">remember_created_at </text>
<text text-anchor="start" x="976.0834" y="-503.9" font-family="Arial" font-size="14.00" fill="#666666">[datetime]</text>
<polygon fill="none" stroke="#000000" points="827.5,-462.5 827.5,-492.5 1072.5,-492.5 1072.5,-462.5 827.5,-462.5"/>
<text text-anchor="start" x="834.5" y="-473.9" font-family="Arial" font-size="14.00" fill="#000000">sign_in_count </text>
<text text-anchor="start" x="924.7552" y="-473.9" font-family="Arial" font-size="14.00" fill="#666666">[int]</text>
<polygon fill="none" stroke="#000000" points="827.5,-432.5 827.5,-462.5 1072.5,-462.5 1072.5,-432.5 827.5,-432.5"/>
<text text-anchor="start" x="834.5" y="-443.9" font-family="Arial" font-size="14.00" fill="#000000">current_sign_in_at </text>
<text text-anchor="start" x="953.5322" y="-443.9" font-family="Arial" font-size="14.00" fill="#666666">[datetime]</text>
<polygon fill="none" stroke="#000000" points="827.5,-402.5 827.5,-432.5 1072.5,-432.5 1072.5,-402.5 827.5,-402.5"/>
<text text-anchor="start" x="834.5" y="-413.9" font-family="Arial" font-size="14.00" fill="#000000">last_sign_in_at </text>
<text text-anchor="start" x="931.7524" y="-413.9" font-family="Arial" font-size="14.00" fill="#666666">[datetime]</text>
<polygon fill="none" stroke="#000000" points="827.5,-372.5 827.5,-402.5 1072.5,-402.5 1072.5,-372.5 827.5,-372.5"/>
<text text-anchor="start" x="834.5" y="-383.9" font-family="Arial" font-size="14.00" fill="#000000">current_sign_in_ip </text>
<text text-anchor="start" x="952.7482" y="-383.9" font-family="Arial" font-size="14.00" fill="#666666">[varchar(255)]</text>
<polygon fill="none" stroke="#000000" points="827.5,-342.5 827.5,-372.5 1072.5,-372.5 1072.5,-342.5 827.5,-342.5"/>
<text text-anchor="start" x="834.5" y="-353.9" font-family="Arial" font-size="14.00" fill="#000000">last_sign_in_ip </text>
<text text-anchor="start" x="930.9684" y="-353.9" font-family="Arial" font-size="14.00" fill="#666666">[varchar(255)]</text>
<polygon fill="none" stroke="#000000" points="827.5,-312.5 827.5,-342.5 1072.5,-342.5 1072.5,-312.5 827.5,-312.5"/>
<text text-anchor="start" x="834.5" y="-323.9" font-family="Arial" font-size="14.00" fill="#000000">confirmation_token </text>
<text text-anchor="start" x="956.6402" y="-323.9" font-family="Arial" font-size="14.00" fill="#666666">[varchar(255)]</text>
<polygon fill="none" stroke="#000000" points="827.5,-282.5 827.5,-312.5 1072.5,-312.5 1072.5,-282.5 827.5,-282.5"/>
<text text-anchor="start" x="834.5" y="-293.9" font-family="Arial" font-size="14.00" fill="#000000">confirmed_at </text>
<text text-anchor="start" x="919.2952" y="-293.9" font-family="Arial" font-size="14.00" fill="#666666">[datetime]</text>
<polygon fill="none" stroke="#000000" points="827.5,-252.5 827.5,-282.5 1072.5,-282.5 1072.5,-252.5 827.5,-252.5"/>
<text text-anchor="start" x="834.5" y="-263.9" font-family="Arial" font-size="14.00" fill="#000000">confirmation_sent_at </text>
<text text-anchor="start" x="968.3134" y="-263.9" font-family="Arial" font-size="14.00" fill="#666666">[datetime]</text>
<polygon fill="none" stroke="#000000" points="827.5,-222.5 827.5,-252.5 1072.5,-252.5 1072.5,-222.5 827.5,-222.5"/>
<text text-anchor="start" x="834.5" y="-233.9" font-family="Arial" font-size="14.00" fill="#000000">unconfirmed_email </text>
<text text-anchor="start" x="956.6262" y="-233.9" font-family="Arial" font-size="14.00" fill="#666666">[varchar(255)]</text>
<polygon fill="none" stroke="#000000" points="827.5,-192.5 827.5,-222.5 1072.5,-222.5 1072.5,-192.5 827.5,-192.5"/>
<text text-anchor="start" x="834.5" y="-203.9" font-family="Arial" font-size="14.00" fill="#000000">failed_attempts </text>
<text text-anchor="start" x="933.305" y="-203.9" font-family="Arial" font-size="14.00" fill="#666666">[int]</text>
<polygon fill="none" stroke="#000000" points="827.5,-162.5 827.5,-192.5 1072.5,-192.5 1072.5,-162.5 827.5,-162.5"/>
<text text-anchor="start" x="834.5" y="-173.9" font-family="Arial" font-size="14.00" fill="#000000">unlock_token </text>
<text text-anchor="start" x="920.866" y="-173.9" font-family="Arial" font-size="14.00" fill="#666666">[varchar(255)]</text>
<polygon fill="none" stroke="#000000" points="827.5,-132.5 827.5,-162.5 1072.5,-162.5 1072.5,-132.5 827.5,-132.5"/>
<text text-anchor="start" x="834.5" y="-143.9" font-family="Arial" font-size="14.00" fill="#000000">locked_at </text>
<text text-anchor="start" x="898.3008" y="-143.9" font-family="Arial" font-size="14.00" fill="#666666">[datetime]</text>
<polygon fill="none" stroke="#000000" points="827.5,-102.5 827.5,-132.5 1072.5,-132.5 1072.5,-102.5 827.5,-102.5"/>
<text text-anchor="start" x="834.5" y="-113.9" font-family="Arial" font-size="14.00" fill="#000000">role </text>
<text text-anchor="start" x="861.723" y="-113.9" font-family="Arial" font-size="14.00" fill="#666666">[int]</text>
<polygon fill="none" stroke="#000000" points="827.5,-72.5 827.5,-102.5 1072.5,-102.5 1072.5,-72.5 827.5,-72.5"/>
<text text-anchor="start" x="834.5" y="-83.9" font-family="Arial" font-size="14.00" fill="#000000">created_at </text>
<text text-anchor="start" x="904.528" y="-83.9" font-family="Arial" font-size="14.00" fill="#666666">[datetime(6)]</text>
<polygon fill="none" stroke="#000000" points="827.5,-42.5 827.5,-72.5 1072.5,-72.5 1072.5,-42.5 827.5,-42.5"/>
<text text-anchor="start" x="834.5" y="-53.9" font-family="Arial" font-size="14.00" fill="#000000">updated_at </text>
<text text-anchor="start" x="908.4326" y="-53.9" font-family="Arial" font-size="14.00" fill="#666666">[datetime(6)]</text>
</g>
<!-- oauth_access_grants&#45;&gt;users -->
<g id="edge1" class="edge">
<title>oauth_access_grants:resource_owner_id&#45;&gt;users:id</title>
<path fill="none" stroke="#000000" d="M720.4659,-1067.4338C771.0146,-1044.8788 744.4183,-844.154 763.5,-787 783.8312,-726.1036 763.2993,-657.5 827.5,-657.5"/>
<polygon fill="#000000" stroke="#000000" points="720.2918,-1067.4699 709.5864,-1065.0937 715.3959,-1068.4849 710.5,-1069.5 710.5,-1069.5 710.5,-1069.5 715.3959,-1068.4849 711.4136,-1073.9063 720.2918,-1067.4699 720.2918,-1067.4699"/>
<text text-anchor="start" x="717.3295" y="-1079.5" font-family="Arial" font-size="10.00" fill="#000000">FOREIGN KEY (resource_owner_id) REFERENCES users (id)</text>
</g>
<!-- oauth_access_tokens -->
<g id="node3" class="node">
<title>oauth_access_tokens</title>
<polygon fill="#efefef" stroke="transparent" points="815.5,-1129.5 815.5,-1164.5 1100.5,-1164.5 1100.5,-1129.5 815.5,-1129.5"/>
<polygon fill="none" stroke="#000000" points="815.5,-1129.5 815.5,-1164.5 1100.5,-1164.5 1100.5,-1129.5 815.5,-1129.5"/>
<text text-anchor="start" x="822.3368" y="-1142.3" font-family="Arial Bold" font-size="18.00" fill="#000000">oauth_access_tokens</text>
<text text-anchor="start" x="996.4094" y="-1142.3" font-family="Arial" font-size="14.00" fill="#000000"> </text>
<text text-anchor="start" x="1000.3" y="-1142.3" font-family="Arial" font-size="14.00" fill="#666666">[BASE TABLE]</text>
<polygon fill="none" stroke="#000000" points="815.5,-1099.5 815.5,-1129.5 1100.5,-1129.5 1100.5,-1099.5 815.5,-1099.5"/>
<text text-anchor="start" x="822.5" y="-1110.9" font-family="Arial" font-size="14.00" fill="#000000">id </text>
<text text-anchor="start" x="837.2798" y="-1110.9" font-family="Arial" font-size="14.00" fill="#666666">[bigint]</text>
<polygon fill="none" stroke="#000000" points="815.5,-1069.5 815.5,-1099.5 1100.5,-1099.5 1100.5,-1069.5 815.5,-1069.5"/>
<text text-anchor="start" x="822.5" y="-1080.9" font-family="Arial" font-size="14.00" fill="#000000">resource_owner_id </text>
<text text-anchor="start" x="945.4116" y="-1080.9" font-family="Arial" font-size="14.00" fill="#666666">[bigint]</text>
<polygon fill="none" stroke="#000000" points="815.5,-1039.5 815.5,-1069.5 1100.5,-1069.5 1100.5,-1039.5 815.5,-1039.5"/>
<text text-anchor="start" x="822.5" y="-1050.9" font-family="Arial" font-size="14.00" fill="#000000">application_id </text>
<text text-anchor="start" x="911.9684" y="-1050.9" font-family="Arial" font-size="14.00" fill="#666666">[bigint]</text>
<polygon fill="none" stroke="#000000" points="815.5,-1009.5 815.5,-1039.5 1100.5,-1039.5 1100.5,-1009.5 815.5,-1009.5"/>
<text text-anchor="start" x="822.5" y="-1020.9" font-family="Arial" font-size="14.00" fill="#000000">token </text>
<text text-anchor="start" x="860.629" y="-1020.9" font-family="Arial" font-size="14.00" fill="#666666">[varchar(255)]</text>
<polygon fill="none" stroke="#000000" points="815.5,-979.5 815.5,-1009.5 1100.5,-1009.5 1100.5,-979.5 815.5,-979.5"/>
<text text-anchor="start" x="822.5" y="-990.9" font-family="Arial" font-size="14.00" fill="#000000">refresh_token </text>
<text text-anchor="start" x="911.9712" y="-990.9" font-family="Arial" font-size="14.00" fill="#666666">[varchar(255)]</text>
<polygon fill="none" stroke="#000000" points="815.5,-949.5 815.5,-979.5 1100.5,-979.5 1100.5,-949.5 815.5,-949.5"/>
<text text-anchor="start" x="822.5" y="-960.9" font-family="Arial" font-size="14.00" fill="#000000">expires_in </text>
<text text-anchor="start" x="890.1774" y="-960.9" font-family="Arial" font-size="14.00" fill="#666666">[int]</text>
<polygon fill="none" stroke="#000000" points="815.5,-919.5 815.5,-949.5 1100.5,-949.5 1100.5,-919.5 815.5,-919.5"/>
<text text-anchor="start" x="822.5" y="-930.9" font-family="Arial" font-size="14.00" fill="#000000">revoked_at </text>
<text text-anchor="start" x="895.6374" y="-930.9" font-family="Arial" font-size="14.00" fill="#666666">[datetime]</text>
<polygon fill="none" stroke="#000000" points="815.5,-889.5 815.5,-919.5 1100.5,-919.5 1100.5,-889.5 815.5,-889.5"/>
<text text-anchor="start" x="822.5" y="-900.9" font-family="Arial" font-size="14.00" fill="#000000">created_at </text>
<text text-anchor="start" x="892.528" y="-900.9" font-family="Arial" font-size="14.00" fill="#666666">[datetime]</text>
<polygon fill="none" stroke="#000000" points="815.5,-859.5 815.5,-889.5 1100.5,-889.5 1100.5,-859.5 815.5,-859.5"/>
<text text-anchor="start" x="822.5" y="-870.9" font-family="Arial" font-size="14.00" fill="#000000">scopes </text>
<text text-anchor="start" x="870.7384" y="-870.9" font-family="Arial" font-size="14.00" fill="#666666">[varchar(255)]</text>
<polygon fill="none" stroke="#000000" points="815.5,-829.5 815.5,-859.5 1100.5,-859.5 1100.5,-829.5 815.5,-829.5"/>
<text text-anchor="start" x="822.5" y="-840.9" font-family="Arial" font-size="14.00" fill="#000000">previous_refresh_token </text>
<text text-anchor="start" x="972.6514" y="-840.9" font-family="Arial" font-size="14.00" fill="#666666">[varchar(255)]</text>
</g>
<!-- oauth_access_tokens&#45;&gt;oauth_applications -->
<g id="edge3" class="edge">
<title>oauth_access_tokens:application_id&#45;&gt;oauth_applications:id</title>
<path fill="none" stroke="#000000" d="M806.1926,-1049.9762C754.6556,-996.7894 775.5806,-492.5 715.5,-492.5"/>
<polygon fill="#000000" stroke="#000000" points="806.5061,-1050.1285 813.5328,-1058.5473 811.003,-1052.3143 815.5,-1054.5 815.5,-1054.5 815.5,-1054.5 811.003,-1052.3143 817.4672,-1050.4527 806.5061,-1050.1285 806.5061,-1050.1285"/>
<text text-anchor="start" x="822.815" y="-1064.5" font-family="Arial" font-size="10.00" fill="#000000">FOREIGN KEY (application_id) REFERENCES oauth_applications (id)</text>
</g>
<!-- oauth_access_tokens&#45;&gt;users -->
<g id="edge4" class="edge">
<title>oauth_access_tokens:resource_owner_id&#45;&gt;users:id</title>
<path fill="none" stroke="#000000" d="M805.4396,-1082.3512C751.9364,-1058.0084 774.4885,-834.1568 815.5,-787 891.1879,-699.9709 996.8121,-838.0291 1072.5,-751 1099.77,-719.6438 1114.0556,-657.5 1072.5,-657.5"/>
<polygon fill="#000000" stroke="#000000" points="805.7206,-1082.4111 814.56,-1088.9007 810.6103,-1083.4556 815.5,-1084.5 815.5,-1084.5 815.5,-1084.5 810.6103,-1083.4556 816.44,-1080.0993 805.7206,-1082.4111 805.7206,-1082.4111"/>
<text text-anchor="start" x="822.3295" y="-1094.5" font-family="Arial" font-size="10.00" fill="#000000">FOREIGN KEY (resource_owner_id) REFERENCES users (id)</text>
</g>
<!-- schema_migrations -->
<g id="node5" class="node">
<title>schema_migrations</title>
<polygon fill="#efefef" stroke="transparent" points="1204.5,-994.5 1204.5,-1029.5 1471.5,-1029.5 1471.5,-994.5 1204.5,-994.5"/>
<polygon fill="none" stroke="#000000" points="1204.5,-994.5 1204.5,-1029.5 1471.5,-1029.5 1471.5,-994.5 1204.5,-994.5"/>
<text text-anchor="start" x="1211.3647" y="-1007.3" font-family="Arial Bold" font-size="18.00" fill="#000000">schema_migrations</text>
<text text-anchor="start" x="1367.3815" y="-1007.3" font-family="Arial" font-size="14.00" fill="#000000"> </text>
<text text-anchor="start" x="1371.2721" y="-1007.3" font-family="Arial" font-size="14.00" fill="#666666">[BASE TABLE]</text>
<polygon fill="none" stroke="#000000" points="1204.5,-964.5 1204.5,-994.5 1471.5,-994.5 1471.5,-964.5 1204.5,-964.5"/>
<text text-anchor="start" x="1211.5" y="-975.9" font-family="Arial" font-size="14.00" fill="#000000">version </text>
<text text-anchor="start" x="1260.5056" y="-975.9" font-family="Arial" font-size="14.00" fill="#666666">[varchar(255)]</text>
</g>
</g>
</svg>
