<?xml version="1.0" encoding="UTF-8" standalone="no"?>
<!DOCTYPE svg PUBLIC "-//W3C//DTD SVG 1.1//EN"
 "http://www.w3.org/Graphics/SVG/1.1/DTD/svg11.dtd">
<!-- Generated by graphviz version 2.40.1 (20161225.0304)
 -->
<!-- Title: users Pages: 1 -->
<svg width="766pt" height="1222pt"
 viewBox="0.00 0.00 765.50 1222.00" xmlns="http://www.w3.org/2000/svg" xmlns:xlink="http://www.w3.org/1999/xlink">
<g id="graph0" class="graph" transform="scale(1 1) rotate(0) translate(4 1218)">
<title>users</title>
<polygon fill="#ffffff" stroke="transparent" points="-4,4 -4,-1218 761.5,-1218 761.5,4 -4,4"/>
<!-- users -->
<g id="node1" class="node">
<title>users</title>
<polygon fill="#efefef" stroke="transparent" points="255,-675.5 255,-710.5 500,-710.5 500,-675.5 255,-675.5"/>
<polygon fill="none" stroke="#000000" points="255,-675.5 255,-710.5 500,-710.5 500,-675.5 255,-675.5"/>
<text text-anchor="start" x="306.8708" y="-688.3" font-family="Arial Bold" font-size="18.00" fill="#000000">users</text>
<text text-anchor="start" x="350.8754" y="-688.3" font-family="Arial" font-size="14.00" fill="#000000"> </text>
<text text-anchor="start" x="354.766" y="-688.3" font-family="Arial" font-size="14.00" fill="#666666">[BASE TABLE]</text>
<polygon fill="none" stroke="#000000" points="255,-645.5 255,-675.5 500,-675.5 500,-645.5 255,-645.5"/>
<text text-anchor="start" x="262" y="-656.9" font-family="Arial" font-size="14.00" fill="#000000">id </text>
<text text-anchor="start" x="276.7798" y="-656.9" font-family="Arial" font-size="14.00" fill="#666666">[bigint]</text>
<polygon fill="none" stroke="#000000" points="255,-615.5 255,-645.5 500,-645.5 500,-615.5 255,-615.5"/>
<text text-anchor="start" x="262" y="-626.9" font-family="Arial" font-size="14.00" fill="#000000">email </text>
<text text-anchor="start" x="299.3296" y="-626.9" font-family="Arial" font-size="14.00" fill="#666666">[varchar(255)]</text>
<polygon fill="none" stroke="#000000" points="255,-585.5 255,-615.5 500,-615.5 500,-585.5 255,-585.5"/>
<text text-anchor="start" x="262" y="-596.9" font-family="Arial" font-size="14.00" fill="#000000">encrypted_password </text>
<text text-anchor="start" x="395.035" y="-596.9" font-family="Arial" font-size="14.00" fill="#666666">[varchar(255)]</text>
<polygon fill="none" stroke="#000000" points="255,-555.5 255,-585.5 500,-585.5 500,-555.5 255,-555.5"/>
<text text-anchor="start" x="261.5863" y="-566.9" font-family="Arial" font-size="14.00" fill="#000000">reset_password_token </text>
<text text-anchor="start" x="406.2945" y="-566.9" font-family="Arial" font-size="14.00" fill="#666666">[varchar(255)]</text>
<polygon fill="none" stroke="#000000" points="255,-525.5 255,-555.5 500,-555.5 500,-525.5 255,-525.5"/>
<text text-anchor="start" x="262" y="-536.9" font-family="Arial" font-size="14.00" fill="#000000">reset_password_sent_at </text>
<text text-anchor="start" x="418.3814" y="-536.9" font-family="Arial" font-size="14.00" fill="#666666">[datetime]</text>
<polygon fill="none" stroke="#000000" points="255,-495.5 255,-525.5 500,-525.5 500,-495.5 255,-495.5"/>
<text text-anchor="start" x="262" y="-506.9" font-family="Arial" font-size="14.00" fill="#000000">remember_created_at </text>
<text text-anchor="start" x="403.5834" y="-506.9" font-family="Arial" font-size="14.00" fill="#666666">[datetime]</text>
<polygon fill="none" stroke="#000000" points="255,-465.5 255,-495.5 500,-495.5 500,-465.5 255,-465.5"/>
<text text-anchor="start" x="262" y="-476.9" font-family="Arial" font-size="14.00" fill="#000000">sign_in_count </text>
<text text-anchor="start" x="352.2552" y="-476.9" font-family="Arial" font-size="14.00" fill="#666666">[int]</text>
<polygon fill="none" stroke="#000000" points="255,-435.5 255,-465.5 500,-465.5 500,-435.5 255,-435.5"/>
<text text-anchor="start" x="262" y="-446.9" font-family="Arial" font-size="14.00" fill="#000000">current_sign_in_at </text>
<text text-anchor="start" x="381.0322" y="-446.9" font-family="Arial" font-size="14.00" fill="#666666">[datetime]</text>
<polygon fill="none" stroke="#000000" points="255,-405.5 255,-435.5 500,-435.5 500,-405.5 255,-405.5"/>
<text text-anchor="start" x="262" y="-416.9" font-family="Arial" font-size="14.00" fill="#000000">last_sign_in_at </text>
<text text-anchor="start" x="359.2524" y="-416.9" font-family="Arial" font-size="14.00" fill="#666666">[datetime]</text>
<polygon fill="none" stroke="#000000" points="255,-375.5 255,-405.5 500,-405.5 500,-375.5 255,-375.5"/>
<text text-anchor="start" x="262" y="-386.9" font-family="Arial" font-size="14.00" fill="#000000">current_sign_in_ip </text>
<text text-anchor="start" x="380.2482" y="-386.9" font-family="Arial" font-size="14.00" fill="#666666">[varchar(255)]</text>
<polygon fill="none" stroke="#000000" points="255,-345.5 255,-375.5 500,-375.5 500,-345.5 255,-345.5"/>
<text text-anchor="start" x="262" y="-356.9" font-family="Arial" font-size="14.00" fill="#000000">last_sign_in_ip </text>
<text text-anchor="start" x="358.4684" y="-356.9" font-family="Arial" font-size="14.00" fill="#666666">[varchar(255)]</text>
<polygon fill="none" stroke="#000000" points="255,-315.5 255,-345.5 500,-345.5 500,-315.5 255,-315.5"/>
<text text-anchor="start" x="262" y="-326.9" font-family="Arial" font-size="14.00" fill="#000000">confirmation_token </text>
<text text-anchor="start" x="384.1402" y="-326.9" font-family="Arial" font-size="14.00" fill="#666666">[varchar(255)]</text>
<polygon fill="none" stroke="#000000" points="255,-285.5 255,-315.5 500,-315.5 500,-285.5 255,-285.5"/>
<text text-anchor="start" x="262" y="-296.9" font-family="Arial" font-size="14.00" fill="#000000">confirmed_at </text>
<text text-anchor="start" x="346.7952" y="-296.9" font-family="Arial" font-size="14.00" fill="#666666">[datetime]</text>
<polygon fill="none" stroke="#000000" points="255,-255.5 255,-285.5 500,-285.5 500,-255.5 255,-255.5"/>
<text text-anchor="start" x="262" y="-266.9" font-family="Arial" font-size="14.00" fill="#000000">confirmation_sent_at </text>
<text text-anchor="start" x="395.8134" y="-266.9" font-family="Arial" font-size="14.00" fill="#666666">[datetime]</text>
<polygon fill="none" stroke="#000000" points="255,-225.5 255,-255.5 500,-255.5 500,-225.5 255,-225.5"/>
<text text-anchor="start" x="262" y="-236.9" font-family="Arial" font-size="14.00" fill="#000000">unconfirmed_email </text>
<text text-anchor="start" x="384.1262" y="-236.9" font-family="Arial" font-size="14.00" fill="#666666">[varchar(255)]</text>
<polygon fill="none" stroke="#000000" points="255,-195.5 255,-225.5 500,-225.5 500,-195.5 255,-195.5"/>
<text text-anchor="start" x="262" y="-206.9" font-family="Arial" font-size="14.00" fill="#000000">failed_attempts </text>
<text text-anchor="start" x="360.805" y="-206.9" font-family="Arial" font-size="14.00" fill="#666666">[int]</text>
<polygon fill="none" stroke="#000000" points="255,-165.5 255,-195.5 500,-195.5 500,-165.5 255,-165.5"/>
<text text-anchor="start" x="262" y="-176.9" font-family="Arial" font-size="14.00" fill="#000000">unlock_token </text>
<text text-anchor="start" x="348.366" y="-176.9" font-family="Arial" font-size="14.00" fill="#666666">[varchar(255)]</text>
<polygon fill="none" stroke="#000000" points="255,-135.5 255,-165.5 500,-165.5 500,-135.5 255,-135.5"/>
<text text-anchor="start" x="262" y="-146.9" font-family="Arial" font-size="14.00" fill="#000000">locked_at </text>
<text text-anchor="start" x="325.8008" y="-146.9" font-family="Arial" font-size="14.00" fill="#666666">[datetime]</text>
<polygon fill="none" stroke="#000000" points="255,-105.5 255,-135.5 500,-135.5 500,-105.5 255,-105.5"/>
<text text-anchor="start" x="262" y="-116.9" font-family="Arial" font-size="14.00" fill="#000000">role </text>
<text text-anchor="start" x="289.223" y="-116.9" font-family="Arial" font-size="14.00" fill="#666666">[int]</text>
<polygon fill="none" stroke="#000000" points="255,-75.5 255,-105.5 500,-105.5 500,-75.5 255,-75.5"/>
<text text-anchor="start" x="262" y="-86.9" font-family="Arial" font-size="14.00" fill="#000000">created_at </text>
<text text-anchor="start" x="332.028" y="-86.9" font-family="Arial" font-size="14.00" fill="#666666">[datetime(6)]</text>
<polygon fill="none" stroke="#000000" points="255,-45.5 255,-75.5 500,-75.5 500,-45.5 255,-45.5"/>
<text text-anchor="start" x="262" y="-56.9" font-family="Arial" font-size="14.00" fill="#000000">updated_at </text>
<text text-anchor="start" x="335.9326" y="-56.9" font-family="Arial" font-size="14.00" fill="#666666">[datetime(6)]</text>
<polygon fill="none" stroke="#000000" stroke-width="3" points="253,-44.5 253,-712.5 501,-712.5 501,-44.5 253,-44.5"/>
</g>
<!-- oauth_access_grants -->
<g id="node2" class="node">
<title>oauth_access_grants</title>
<polygon fill="#efefef" stroke="transparent" points="43,-1120.5 43,-1155.5 325,-1155.5 325,-1120.5 43,-1120.5"/>
<polygon fill="none" stroke="#000000" points="43,-1120.5 43,-1155.5 325,-1155.5 325,-1120.5 43,-1120.5"/>
<text text-anchor="start" x="49.8407" y="-1133.3" font-family="Arial Bold" font-size="18.00" fill="#000000">oauth_access_grants</text>
<text text-anchor="start" x="220.9055" y="-1133.3" font-family="Arial" font-size="14.00" fill="#000000"> </text>
<text text-anchor="start" x="224.7961" y="-1133.3" font-family="Arial" font-size="14.00" fill="#666666">[BASE TABLE]</text>
<polygon fill="none" stroke="#000000" points="43,-1090.5 43,-1120.5 325,-1120.5 325,-1090.5 43,-1090.5"/>
<text text-anchor="start" x="50" y="-1101.9" font-family="Arial" font-size="14.00" fill="#000000">id </text>
<text text-anchor="start" x="64.7798" y="-1101.9" font-family="Arial" font-size="14.00" fill="#666666">[bigint]</text>
<polygon fill="none" stroke="#000000" points="43,-1060.5 43,-1090.5 325,-1090.5 325,-1060.5 43,-1060.5"/>
<text text-anchor="start" x="50" y="-1071.9" font-family="Arial" font-size="14.00" fill="#000000">resource_owner_id </text>
<text text-anchor="start" x="172.9116" y="-1071.9" font-family="Arial" font-size="14.00" fill="#666666">[bigint]</text>
<polygon fill="none" stroke="#000000" points="43,-1030.5 43,-1060.5 325,-1060.5 325,-1030.5 43,-1030.5"/>
<text text-anchor="start" x="50" y="-1041.9" font-family="Arial" font-size="14.00" fill="#000000">application_id </text>
<text text-anchor="start" x="139.4684" y="-1041.9" font-family="Arial" font-size="14.00" fill="#666666">[bigint]</text>
<polygon fill="none" stroke="#000000" points="43,-1000.5 43,-1030.5 325,-1030.5 325,-1000.5 43,-1000.5"/>
<text text-anchor="start" x="50" y="-1011.9" font-family="Arial" font-size="14.00" fill="#000000">token </text>
<text text-anchor="start" x="88.129" y="-1011.9" font-family="Arial" font-size="14.00" fill="#666666">[varchar(255)]</text>
<polygon fill="none" stroke="#000000" points="43,-970.5 43,-1000.5 325,-1000.5 325,-970.5 43,-970.5"/>
<text text-anchor="start" x="50" y="-981.9" font-family="Arial" font-size="14.00" fill="#000000">expires_in </text>
<text text-anchor="start" x="117.6774" y="-981.9" font-family="Arial" font-size="14.00" fill="#666666">[int]</text>
<polygon fill="none" stroke="#000000" points="43,-940.5 43,-970.5 325,-970.5 325,-940.5 43,-940.5"/>
<text text-anchor="start" x="50" y="-951.9" font-family="Arial" font-size="14.00" fill="#000000">redirect_uri </text>
<text text-anchor="start" x="123.8892" y="-951.9" font-family="Arial" font-size="14.00" fill="#666666">[text]</text>
<polygon fill="none" stroke="#000000" points="43,-910.5 43,-940.5 325,-940.5 325,-910.5 43,-910.5"/>
<text text-anchor="start" x="50" y="-921.9" font-family="Arial" font-size="14.00" fill="#000000">created_at </text>
<text text-anchor="start" x="120.028" y="-921.9" font-family="Arial" font-size="14.00" fill="#666666">[datetime]</text>
<polygon fill="none" stroke="#000000" points="43,-880.5 43,-910.5 325,-910.5 325,-880.5 43,-880.5"/>
<text text-anchor="start" x="50" y="-891.9" font-family="Arial" font-size="14.00" fill="#000000">revoked_at </text>
<text text-anchor="start" x="123.1374" y="-891.9" font-family="Arial" font-size="14.00" fill="#666666">[datetime]</text>
<polygon fill="none" stroke="#000000" points="43,-850.5 43,-880.5 325,-880.5 325,-850.5 43,-850.5"/>
<text text-anchor="start" x="50" y="-861.9" font-family="Arial" font-size="14.00" fill="#000000">scopes </text>
<text text-anchor="start" x="98.2384" y="-861.9" font-family="Arial" font-size="14.00" fill="#666666">[varchar(255)]</text>
</g>
<!-- oauth_access_grants&#45;&gt;users -->
<g id="edge1" class="edge">
<title>oauth_access_grants:resource_owner_id&#45;&gt;users:id</title>
<path fill="none" stroke="#000000" d="M334.8081,-1073.2243C380.5301,-1050.1155 350.3202,-857.7753 325,-808 307.5475,-773.6913 272.4525,-791.3087 255,-757 235.5542,-718.7728 212.1111,-660.5 255,-660.5"/>
<polygon fill="#000000" stroke="#000000" points="334.7412,-1073.2397 323.9829,-1071.1164 329.8706,-1074.3698 325,-1075.5 325,-1075.5 325,-1075.5 329.8706,-1074.3698 326.0171,-1079.8836 334.7412,-1073.2397 334.7412,-1073.2397"/>
<text text-anchor="start" x="331.8295" y="-1085.5" font-family="Arial" font-size="10.00" fill="#000000">FOREIGN KEY (resource_owner_id) REFERENCES users (id)</text>
</g>
<!-- oauth_access_tokens -->
<g id="node3" class="node">
<title>oauth_access_tokens</title>
<polygon fill="#efefef" stroke="transparent" points="430,-1135.5 430,-1170.5 715,-1170.5 715,-1135.5 430,-1135.5"/>
<polygon fill="none" stroke="#000000" points="430,-1135.5 430,-1170.5 715,-1170.5 715,-1135.5 430,-1135.5"/>
<text text-anchor="start" x="436.8368" y="-1148.3" font-family="Arial Bold" font-size="18.00" fill="#000000">oauth_access_tokens</text>
<text text-anchor="start" x="610.9094" y="-1148.3" font-family="Arial" font-size="14.00" fill="#000000"> </text>
<text text-anchor="start" x="614.8" y="-1148.3" font-family="Arial" font-size="14.00" fill="#666666">[BASE TABLE]</text>
<polygon fill="none" stroke="#000000" points="430,-1105.5 430,-1135.5 715,-1135.5 715,-1105.5 430,-1105.5"/>
<text text-anchor="start" x="437" y="-1116.9" font-family="Arial" font-size="14.00" fill="#000000">id </text>
<text text-anchor="start" x="451.7798" y="-1116.9" font-family="Arial" font-size="14.00" fill="#666666">[bigint]</text>
<polygon fill="none" stroke="#000000" points="430,-1075.5 430,-1105.5 715,-1105.5 715,-1075.5 430,-1075.5"/>
<text text-anchor="start" x="437" y="-1086.9" font-family="Arial" font-size="14.00" fill="#000000">resource_owner_id </text>
<text text-anchor="start" x="559.9116" y="-1086.9" font-family="Arial" font-size="14.00" fill="#666666">[bigint]</text>
<polygon fill="none" stroke="#000000" points="430,-1045.5 430,-1075.5 715,-1075.5 715,-1045.5 430,-1045.5"/>
<text text-anchor="start" x="437" y="-1056.9" font-family="Arial" font-size="14.00" fill="#000000">application_id </text>
<text text-anchor="start" x="526.4684" y="-1056.9" font-family="Arial" font-size="14.00" fill="#666666">[bigint]</text>
<polygon fill="none" stroke="#000000" points="430,-1015.5 430,-1045.5 715,-1045.5 715,-1015.5 430,-1015.5"/>
<text text-anchor="start" x="437" y="-1026.9" font-family="Arial" font-size="14.00" fill="#000000">token </text>
<text text-anchor="start" x="475.129" y="-1026.9" font-family="Arial" font-size="14.00" fill="#666666">[varchar(255)]</text>
<polygon fill="none" stroke="#000000" points="430,-985.5 430,-1015.5 715,-1015.5 715,-985.5 430,-985.5"/>
<text text-anchor="start" x="437" y="-996.9" font-family="Arial" font-size="14.00" fill="#000000">refresh_token </text>
<text text-anchor="start" x="526.4712" y="-996.9" font-family="Arial" font-size="14.00" fill="#666666">[varchar(255)]</text>
<polygon fill="none" stroke="#000000" points="430,-955.5 430,-985.5 715,-985.5 715,-955.5 430,-955.5"/>
<text text-anchor="start" x="437" y="-966.9" font-family="Arial" font-size="14.00" fill="#000000">expires_in </text>
<text text-anchor="start" x="504.6774" y="-966.9" font-family="Arial" font-size="14.00" fill="#666666">[int]</text>
<polygon fill="none" stroke="#000000" points="430,-925.5 430,-955.5 715,-955.5 715,-925.5 430,-925.5"/>
<text text-anchor="start" x="437" y="-936.9" font-family="Arial" font-size="14.00" fill="#000000">revoked_at </text>
<text text-anchor="start" x="510.1374" y="-936.9" font-family="Arial" font-size="14.00" fill="#666666">[datetime]</text>
<polygon fill="none" stroke="#000000" points="430,-895.5 430,-925.5 715,-925.5 715,-895.5 430,-895.5"/>
<text text-anchor="start" x="437" y="-906.9" font-family="Arial" font-size="14.00" fill="#000000">created_at </text>
<text text-anchor="start" x="507.028" y="-906.9" font-family="Arial" font-size="14.00" fill="#666666">[datetime]</text>
<polygon fill="none" stroke="#000000" points="430,-865.5 430,-895.5 715,-895.5 715,-865.5 430,-865.5"/>
<text text-anchor="start" x="437" y="-876.9" font-family="Arial" font-size="14.00" fill="#000000">scopes </text>
<text text-anchor="start" x="485.2384" y="-876.9" font-family="Arial" font-size="14.00" fill="#666666">[varchar(255)]</text>
<polygon fill="none" stroke="#000000" points="430,-835.5 430,-865.5 715,-865.5 715,-835.5 430,-835.5"/>
<text text-anchor="start" x="437" y="-846.9" font-family="Arial" font-size="14.00" fill="#000000">previous_refresh_token </text>
<text text-anchor="start" x="587.1514" y="-846.9" font-family="Arial" font-size="14.00" fill="#666666">[varchar(255)]</text>
</g>
<!-- oauth_access_tokens&#45;&gt;users -->
<g id="edge2" class="edge">
<title>oauth_access_tokens:resource_owner_id&#45;&gt;users:id</title>
<path fill="none" stroke="#000000" d="M420.0155,-1088.4067C367.3616,-1064.6856 397.4467,-846.3478 430,-793 448.223,-763.1366 481.777,-786.8634 500,-757 522.3404,-720.389 542.8889,-660.5 500,-660.5"/>
<polygon fill="#000000" stroke="#000000" points="420.2128,-1088.448 429.0766,-1094.9043 425.1064,-1089.474 430,-1090.5 430,-1090.5 430,-1090.5 425.1064,-1089.474 430.9234,-1086.0957 420.2128,-1088.448 420.2128,-1088.448"/>
<text text-anchor="start" x="436.8295" y="-1100.5" font-family="Arial" font-size="10.00" fill="#000000">FOREIGN KEY (resource_owner_id) REFERENCES users (id)</text>
</g>
</g>
</svg>
